<svg version="1.1" id="Layer_1" xmlns="http://www.w3.org/2000/svg" xmlns:xlink="http://www.w3.org/1999/xlink" x="0px" y="0px"
	 width="100%" viewBox="0 0 1024 1024" enable-background="new 0 0 1024 1024" xml:space="preserve">
<path fill="#000000" opacity="1.000000" stroke="none" 
	d="
M838.019470,499.992279 
	C838.290039,509.654785 838.223877,519.222107 834.426086,528.435852 
	C833.214233,531.375854 832.129395,531.902649 829.318054,530.720276 
	C822.028503,527.654602 820.951233,525.638000 822.779358,517.961670 
	C823.986450,512.893311 824.401367,507.714478 822.849731,502.679596 
	C821.511780,498.338196 819.056030,497.682312 815.918091,500.415771 
	C816.350769,502.002197 817.738892,501.668274 818.785889,501.673798 
	C821.364380,501.687469 822.451416,502.991821 822.248291,505.412445 
	C821.852295,510.131958 823.800598,515.162048 819.494995,519.351013 
	C817.611267,521.183716 818.331299,524.390625 818.305298,527.054443 
	C818.269043,530.774109 821.538513,529.875183 823.372314,531.124695 
	C829.031982,534.980896 833.959229,534.453552 838.947815,529.619995 
	C837.773071,533.027893 838.568970,536.901550 833.637207,537.707397 
	C830.196289,538.269653 831.780518,540.582764 833.077759,542.565125 
	C836.600220,547.947815 839.099426,553.582397 835.206299,560.177185 
	C835.046448,557.663818 835.231812,555.065735 834.640808,552.658203 
	C833.875244,549.539856 833.083069,545.942200 828.186523,546.524536 
	C827.627625,542.178711 825.615051,539.949890 821.188354,540.287170 
	C820.059143,540.373047 818.659424,540.380249 817.787537,539.808350 
	C812.054871,536.048401 807.627319,540.226624 803.026978,542.290039 
	C797.237488,544.886841 795.717041,550.092102 795.675964,556.114075 
	C793.340393,556.504211 793.526428,558.227234 793.018127,559.581543 
	C791.832092,562.741638 790.678833,565.958740 787.095337,569.308044 
	C787.227661,563.860535 785.555298,559.976929 788.361023,555.277100 
	C790.311829,552.009338 794.055176,548.467041 792.213074,542.564026 
	C786.987915,550.715393 783.307434,558.451599 783.431396,567.542969 
	C783.462341,569.818542 784.435791,571.812683 786.983032,572.339783 
	C789.549622,572.870789 790.644714,570.934814 791.356079,569.115234 
	C793.043762,564.798706 794.461243,560.376648 796.230225,555.758179 
	C797.326904,553.917480 798.194397,552.322632 799.033508,550.712891 
	C803.629395,541.897095 810.782837,538.941711 820.134888,541.950806 
	C823.220032,542.943542 825.398926,545.303345 828.026001,546.984985 
	C831.109436,556.651672 833.728027,566.355103 831.262634,576.643799 
	C830.008728,581.876221 827.849792,586.696594 825.152100,591.318604 
	C823.494751,594.158081 821.514343,595.044067 818.695740,592.807739 
	C817.525330,591.879150 816.225525,591.114502 814.990540,590.266541 
	C811.979614,588.199280 811.552429,585.808533 813.546326,582.626892 
	C816.882141,577.304016 818.356506,571.338928 818.627747,565.097412 
	C818.750366,562.273926 818.107300,559.505676 814.934814,558.805969 
	C811.991272,558.156738 811.007446,560.677307 810.069336,562.841064 
	C807.490295,568.789307 805.130066,574.841125 802.330078,580.682678 
	C798.938354,587.758850 793.163940,591.414429 787.168823,590.806702 
	C778.642761,589.942444 772.754028,585.128479 770.662354,577.273193 
	C766.635010,562.148865 771.294617,548.735962 778.891907,535.930176 
	C779.747314,534.488342 781.050110,532.797363 782.884888,533.924561 
	C787.289795,536.630615 792.471863,538.556152 794.488403,544.004395 
	C796.162903,542.108887 795.135681,539.513855 796.180481,537.088440 
	C799.681458,536.551758 803.275391,536.467468 806.689819,534.131104 
	C809.164917,532.437561 809.999390,529.324280 810.140808,528.213745 
	C811.056702,521.020874 818.343506,515.268616 814.921082,506.812561 
	C812.600891,508.202728 812.831848,510.497223 812.419006,512.407593 
	C811.752930,515.489685 811.438477,518.659058 810.614075,521.693359 
	C808.528687,529.368774 802.708252,534.440491 795.578918,535.082214 
	C788.680115,535.703186 781.495483,531.535034 778.266602,524.601440 
	C771.638062,510.367767 773.105103,496.100403 778.528137,481.900116 
	C779.394043,479.632660 780.841125,478.695465 783.182739,480.010895 
	C783.327637,480.092316 783.476562,480.172302 783.632507,480.227814 
	C793.660767,483.798950 793.668701,483.801331 790.440369,493.624390 
	C788.652771,499.063660 787.581909,504.612976 788.625854,510.313446 
	C789.135010,513.093872 790.046631,516.423523 793.505432,516.366211 
	C796.866760,516.310608 797.223083,513.007019 797.530579,510.352692 
	C797.976990,506.498230 799.603882,502.765686 799.301758,498.897644 
	C796.863831,498.225311 796.409790,499.414642 796.372742,500.903778 
	C796.302307,503.734314 796.342346,506.567383 796.296082,509.398743 
	C796.268005,511.114197 796.155090,513.152710 793.858765,512.917725 
	C792.181946,512.746155 789.765503,512.088684 789.884399,509.895355 
	C790.073059,506.412506 787.627319,502.298523 791.984680,499.566498 
	C793.085022,498.876587 792.543091,497.403595 792.634521,496.275940 
	C792.767761,494.633636 792.538513,492.968231 793.463928,491.427307 
	C797.296631,485.045074 796.374817,481.974060 789.356689,479.796753 
	C785.255554,478.524414 784.768616,476.917694 787.716797,474.119537 
	C789.291626,472.624908 790.475342,470.725647 791.552979,469.044769 
	C793.362000,466.222809 794.511902,462.667358 790.677490,459.880310 
	C786.960999,457.178986 785.391602,452.827545 783.975830,448.861084 
	C782.492249,444.704895 783.372009,440.299774 788.700012,437.268066 
	C789.030945,446.565399 795.277100,454.223297 794.371277,463.671356 
	C795.651611,452.887512 791.958313,442.969727 789.648315,432.571625 
	C782.870667,436.227600 780.525452,443.151428 782.837036,451.482758 
	C783.826721,455.049744 785.283142,458.523712 788.245728,460.871185 
	C791.531250,463.474426 791.317627,465.997223 788.873413,468.884033 
	C788.336365,469.518341 787.726685,470.152527 787.402954,470.896606 
	C784.344055,477.926758 781.761780,475.873688 778.075439,472.728546 
	C766.963135,463.247589 760.548279,436.042480 774.177063,421.262878 
	C789.136169,405.040649 814.927002,408.103455 825.921448,427.400330 
	C826.497620,428.411682 827.008972,429.459961 827.837036,431.134766 
	C828.355469,432.913116 828.497192,434.075287 828.833374,435.178162 
	C831.559021,444.120514 831.415161,452.838501 826.597351,461.085114 
	C825.061890,463.713379 823.091858,466.087769 821.287964,468.624451 
	C822.812073,469.449585 823.480347,469.182709 824.541870,468.157776 
	C827.570129,465.233765 826.964539,460.237122 830.787537,457.769318 
	C831.471741,457.327667 831.541748,455.629211 831.556824,454.506531 
	C831.643555,448.038635 831.539551,441.567352 831.689636,435.101624 
	C831.753601,432.348694 830.630005,431.090576 827.972046,431.022552 
	C828.450562,422.589539 820.586731,415.789215 812.220642,411.886383 
	C805.539612,408.769623 799.242859,408.179413 792.752502,409.438080 
	C783.351990,411.261078 770.967102,416.795929 766.709900,429.257660 
	C764.502136,435.720276 764.006226,441.811218 764.360229,447.953735 
	C764.899597,457.312592 767.947266,466.237946 775.245239,472.786194 
	C779.024658,476.177307 778.740112,479.270477 775.835449,482.635071 
	C774.208130,484.520172 773.044678,486.735138 773.458374,488.952179 
	C774.539673,494.746582 770.029907,499.952637 771.485718,505.357727 
	C773.334045,512.220337 771.516418,519.784485 776.681702,526.186584 
	C779.032410,529.100159 779.554138,534.181702 774.928406,537.680664 
	C772.574097,539.461426 771.500610,542.980103 770.700867,545.643982 
	C768.597595,552.650513 767.043640,559.763733 766.992126,567.377686 
	C766.931335,576.361511 769.450256,583.754639 775.374634,590.629333 
	C773.037598,591.613892 771.485901,591.569641 769.588928,590.165955 
	C765.134460,586.869690 764.389709,588.601929 760.743469,592.196533 
	C756.618347,596.263123 758.670166,601.960876 754.886719,605.702515 
	C753.364197,607.208191 754.308655,609.792236 756.794006,610.299011 
	C759.270996,610.804077 761.436279,612.867249 763.275146,613.087585 
	C772.108765,614.145996 778.992432,620.107849 787.419922,621.875732 
	C794.861023,623.436584 801.814270,626.353760 808.781555,629.267578 
	C810.998169,630.194458 813.382385,629.775635 815.707153,629.772705 
	C819.397705,629.768066 818.375488,626.684937 819.088745,624.705139 
	C819.799011,622.733459 821.703186,621.530945 821.861023,619.038147 
	C822.544250,608.245911 820.076172,605.999695 809.330994,603.971680 
	C805.004272,603.155029 799.902039,602.457031 796.169922,599.174072 
	C794.697144,597.878601 793.002136,598.459595 791.402954,598.376038 
	C789.263489,598.264160 787.285583,598.157837 787.473572,595.707825 
	C791.341431,591.507385 797.401550,592.222412 801.168518,587.942749 
	C803.088135,585.761902 803.752747,582.955811 804.752869,580.800476 
	C807.443848,575.001343 811.114624,569.468384 812.298462,562.991333 
	C813.965698,562.306519 814.905640,562.925354 815.153137,564.596130 
	C816.121399,571.131592 815.061829,577.192871 810.609070,582.309509 
	C807.309326,586.101257 807.888672,589.934998 812.594482,591.568359 
	C814.863342,592.355774 817.028442,593.999329 818.096252,595.218994 
	C821.259644,598.831970 823.382507,598.240906 826.121948,595.257874 
	C826.456970,594.893066 827.345825,595.036865 828.063965,594.932495 
	C828.827820,597.163391 827.194702,599.159912 828.185730,601.355652 
	C830.041138,605.466553 831.721558,609.104858 837.453003,608.142517 
	C839.749023,607.756958 842.374207,608.615295 843.727966,611.391479 
	C841.307495,614.043396 838.312317,613.132629 835.663696,613.199829 
	C828.726501,613.375916 822.314453,619.030029 822.283997,625.977844 
	C822.262634,630.861389 820.534912,633.191406 815.610596,633.005981 
	C814.433044,632.961609 812.975342,633.058167 812.516052,634.226501 
	C809.057922,643.023193 802.630493,651.130127 806.152649,661.588867 
	C807.296387,664.985046 809.196045,667.704163 812.709595,668.503845 
	C816.833984,669.442566 819.079529,672.146179 820.224609,675.759827 
	C821.536560,679.900818 824.133545,682.574036 827.911743,684.430481 
	C833.261597,687.059265 835.173889,691.252869 835.257019,697.361572 
	C835.383606,706.656006 833.732971,714.434875 825.031128,719.570190 
	C820.915833,721.998718 821.034180,726.765869 819.909729,730.975464 
	C815.519104,747.413208 815.069397,765.084290 805.042969,779.801208 
	C803.918701,781.451416 802.999451,783.333069 801.576294,784.673462 
	C789.753784,795.808777 780.325256,809.040344 770.471008,821.746094 
	C760.826660,834.181091 749.930359,845.747925 742.089111,859.622559 
	C738.937500,865.199097 734.971436,870.431946 729.528809,874.335266 
	C725.013611,877.573547 720.318909,878.557312 714.910339,877.537048 
	C707.228394,876.087708 699.479248,874.970459 691.764648,873.747925 
	C684.449097,872.588745 678.475830,867.381287 673.679993,862.051880 
	C670.111389,858.086243 671.952637,852.532104 674.673950,847.989624 
	C680.594421,838.106934 680.129883,835.624084 670.866821,828.646118 
	C665.884338,824.892700 661.270691,821.099854 660.599792,814.087830 
	C660.235962,810.285889 655.786133,807.345337 653.060547,808.497253 
	C648.818726,810.289978 650.111145,813.756409 650.827820,817.065979 
	C651.522644,820.274658 655.131226,822.704651 653.484680,827.130737 
	C649.079407,822.789307 647.742493,817.509033 645.676636,812.484741 
	C643.134399,806.301697 640.165283,800.249878 638.418518,793.813293 
	C636.928528,788.322571 633.934204,783.519348 632.154724,778.109680 
	C629.436707,769.846191 626.916626,761.286743 622.618652,753.521240 
	C620.891174,750.399902 617.569580,749.326904 614.028259,750.572021 
	C610.499451,751.812683 607.562622,754.904846 603.473816,754.326111 
	C600.854492,753.955322 601.383301,756.875122 599.458130,757.737610 
	C597.076782,758.804565 600.456665,760.386475 600.707397,761.669861 
	C601.430420,765.370483 602.742065,768.807190 603.785767,772.346313 
	C604.848816,775.951172 606.886169,779.037048 608.089172,782.525635 
	C610.286926,788.899048 613.004883,795.121094 614.814026,801.662598 
	C614.971741,802.232666 614.736145,803.044800 615.629944,803.246582 
	C615.895203,802.826477 616.153625,802.409119 616.729431,801.479187 
	C617.052856,804.493774 617.413818,806.999512 616.743530,809.757446 
	C613.667786,809.731750 613.359619,807.247803 612.367920,805.500061 
	C611.787659,804.477417 611.317078,803.318176 609.874451,803.416565 
	C608.440979,803.514343 607.801941,804.673706 607.718628,805.811279 
	C606.968872,816.046021 603.020081,825.952209 604.848816,836.473633 
	C605.705627,841.402832 608.075806,844.742188 612.725586,846.482056 
	C617.671387,848.332642 621.371582,850.691772 621.311951,857.113342 
	C621.274109,861.183777 624.427795,864.718628 626.504028,868.325378 
	C630.282715,874.889771 629.207092,878.989441 622.691711,882.834717 
	C621.835266,883.340210 620.946960,883.925537 620.000183,884.123779 
	C607.625244,886.714600 596.151062,892.162659 585.579712,898.410889 
	C568.554443,908.473450 549.030640,912.894775 532.449341,923.626221 
	C529.630798,925.450439 526.397400,926.344910 523.172485,927.250122 
	C514.849487,929.586243 506.601379,932.157043 498.364014,934.791443 
	C481.082031,940.318359 472.281494,937.833496 461.604462,924.698669 
	C456.190216,918.038147 449.832611,913.508118 441.112335,912.730042 
	C433.717560,912.070312 427.461365,908.515137 421.452576,904.580627 
	C416.973724,901.647949 412.208282,900.069031 406.902618,899.989075 
	C400.379669,899.890808 395.233215,897.689880 391.076782,892.151184 
	C386.175720,885.620056 379.687897,880.534424 373.055908,875.695007 
	C360.365143,866.434143 346.027710,860.892944 331.269958,855.952820 
	C321.063965,852.536377 310.234222,850.565430 301.068329,844.381104 
	C300.102600,843.729614 298.775787,843.244873 298.278168,842.324890 
	C293.160248,832.862610 283.192291,827.178711 278.745453,817.260986 
	C277.062836,813.508423 274.312531,811.071594 270.755493,809.404785 
	C266.457642,807.390869 262.797180,804.556030 259.594818,801.105530 
	C256.850098,798.148132 253.663605,795.898438 250.143356,793.871826 
	C244.813507,790.803406 239.815552,787.207703 236.179596,781.980835 
	C234.086700,778.972290 231.259811,776.645325 227.956406,774.833069 
	C211.693695,765.911072 199.601837,753.028625 191.551895,736.293579 
	C189.900208,732.859924 187.777542,729.643433 185.757843,726.397888 
	C181.059418,718.847900 177.874832,710.799622 175.585663,702.130676 
	C173.133606,692.844910 168.909698,684.211731 163.251373,676.117554 
	C158.804108,669.755859 155.170624,662.971191 149.573242,657.310486 
	C145.618607,653.311157 147.661270,642.333740 152.719025,636.971252 
	C156.214142,633.265503 158.633865,628.963989 161.190598,624.681946 
	C162.122437,623.121277 162.967758,621.215942 164.388397,620.289368 
	C171.574554,615.602173 174.123779,608.382874 175.880905,600.588623 
	C176.302475,598.718689 176.473206,596.137573 178.835907,595.828796 
	C181.402267,595.493408 182.327744,598.021973 183.378784,599.849304 
	C185.850800,604.146973 187.879929,608.789368 192.865723,611.088867 
	C193.296417,610.678650 193.943497,610.345337 193.935318,610.028931 
	C193.709183,601.272400 194.954803,592.430298 193.186295,583.779053 
	C192.149277,578.705933 190.855377,574.239807 196.205856,570.531860 
	C198.688293,568.811523 196.227386,566.774231 194.656525,565.877930 
	C188.910187,562.599182 189.473648,555.855591 186.298569,551.192017 
	C185.802689,550.463684 186.238388,549.229919 187.280960,548.343811 
	C189.157364,549.550598 191.645065,550.168701 191.188339,553.399109 
	C190.975204,554.906616 192.250381,555.682617 193.223373,556.611328 
	C199.285492,562.397278 204.317123,569.343079 214.377014,569.070984 
	C218.343964,568.963684 222.385651,572.274597 226.390137,569.093933 
	C227.713211,570.351501 227.238907,571.547241 226.616104,572.459961 
	C220.600601,581.275452 223.780548,590.943176 223.951019,600.328674 
	C223.968994,601.319641 224.186417,602.314453 224.130753,603.297302 
	C224.055527,604.624939 223.958603,606.154053 222.224289,606.355713 
	C220.501526,606.555908 220.306488,605.140198 219.725067,603.869080 
	C217.353714,598.684814 217.561920,593.228088 217.733490,587.777649 
	C217.840652,584.373840 217.425323,581.691650 212.988800,582.210388 
	C212.205032,582.302002 210.999802,582.230469 210.613892,581.741333 
	C207.407730,577.678162 203.440338,578.644043 199.413727,579.733887 
	C198.974319,580.965027 200.108398,581.120361 200.795288,581.844666 
	C201.000198,581.998474 201.018326,581.979614 200.637177,582.053345 
	C198.705948,582.527954 197.895355,583.746216 198.185257,585.110291 
	C199.701920,592.246216 194.635452,600.240784 200.995605,606.725647 
	C200.055893,612.861267 205.030853,616.450867 207.476501,621.026917 
	C210.358490,626.419434 214.572174,630.727295 221.816360,629.783386 
	C224.926834,629.378052 228.137238,629.812012 231.291412,629.651733 
	C235.347000,629.445618 237.961685,627.365967 238.901642,623.100525 
	C239.052719,622.946533 239.355087,622.638855 239.690887,622.639526 
	C243.860977,620.648560 244.781128,616.264343 245.354645,613.108215 
	C246.282715,608.000977 246.999329,602.278503 243.393997,597.263428 
	C242.089340,595.448608 242.329391,592.820923 243.269897,590.568115 
	C248.117371,590.724426 249.823013,593.079834 249.359711,597.850159 
	C248.928452,602.290771 249.472046,606.818848 249.189178,611.283142 
	C248.878891,616.180481 251.558914,618.428467 255.659622,619.852051 
	C258.234528,620.745972 260.865417,620.705872 263.523102,620.695312 
	C267.000977,620.681396 268.702576,619.080933 268.670166,615.519958 
	C268.605225,608.381958 269.089874,601.205688 268.488953,594.117981 
	C268.110596,589.655151 265.093628,585.906006 262.171265,582.144531 
	C262.023285,581.945862 261.737335,581.541321 261.737335,581.541321 
	C262.889038,575.882690 257.723846,574.058228 255.221313,570.562195 
	C252.003967,566.067566 247.316467,566.514526 241.519760,566.275879 
	C249.143433,556.906433 255.777771,548.169067 255.849380,535.985474 
	C255.920654,523.851868 253.026520,513.587646 243.420395,505.786316 
	C252.428635,516.405518 254.602798,528.747742 252.529739,542.121033 
	C250.343781,556.222656 240.592560,565.789001 226.516418,567.860229 
	C212.104385,569.980896 197.455307,562.596375 192.870163,550.149719 
	C186.841614,533.784668 189.322861,518.408020 202.573730,508.749542 
	C207.372864,505.251465 212.946915,503.536499 218.846466,502.934204 
	C222.180817,502.593811 224.009933,503.721558 224.563995,507.428101 
	C226.093964,517.663208 225.861389,528.030396 227.202255,538.267700 
	C227.610138,541.381836 228.043457,544.492615 228.538696,548.147888 
	C234.347183,546.509094 236.423431,541.980164 237.340668,537.419739 
	C238.648468,530.917358 237.996521,524.333679 233.134293,519.119568 
	C230.982925,516.812561 231.479309,515.200867 233.358398,513.192688 
	C235.436371,510.971863 237.297485,508.548187 239.999939,505.321014 
	C233.523514,507.670105 228.710098,513.598511 229.448044,517.524719 
	C230.061615,520.789124 232.944458,522.825012 234.417236,525.793457 
	C237.734451,532.479553 237.086304,541.438354 230.207336,543.461975 
	C228.858307,536.703552 230.685989,529.751465 228.704498,523.224670 
	C228.387253,523.577759 227.974197,524.037598 227.443298,524.628540 
	C227.225235,524.147827 226.882431,523.737549 226.873779,523.320374 
	C226.769943,518.323181 226.675995,513.325073 226.659225,508.326996 
	C226.641220,502.957245 229.771423,499.707275 235.092163,498.630371 
	C243.179947,496.993500 248.462723,491.779053 252.776428,484.896149 
	C258.114838,476.378113 259.280945,467.232483 258.645813,457.574707 
	C258.237823,451.370972 251.870300,439.102539 245.015289,438.673615 
	C242.479584,438.514923 240.591202,438.389221 239.195343,441.011841 
	C237.104721,444.939819 232.742599,447.685089 233.293152,452.985168 
	C233.471725,454.704315 233.527847,456.292328 235.180252,457.311005 
	C239.781967,460.147736 239.723282,464.554688 239.063324,469.570068 
	C238.998566,470.005737 239.018250,469.982056 239.018250,469.982056 
	C236.675430,469.997070 235.593140,471.948303 234.284317,473.323853 
	C229.210358,478.656616 216.442932,478.292389 211.837234,472.549896 
	C208.383713,468.243835 211.035965,456.311829 216.336578,453.910248 
	C219.181702,452.621155 219.859344,450.710938 219.934769,448.086884 
	C220.092453,442.601349 215.780716,434.551727 211.942719,432.970245 
	C210.798615,432.498779 209.783813,432.289215 208.618286,432.857910 
	C201.897095,436.137329 197.852554,441.675354 193.931534,447.946503 
	C189.750916,454.632843 191.434204,461.409363 191.407028,468.120056 
	C191.386734,473.135010 188.786346,478.795807 193.558319,483.281738 
	C194.138931,483.827606 193.556213,484.897034 192.768188,485.366211 
	C191.322739,486.226868 190.279129,485.544800 189.332184,484.412079 
	C186.107925,480.555359 184.793991,476.142273 186.483932,471.378754 
	C188.180786,466.595764 188.299561,461.977020 186.759338,457.204865 
	C186.017166,454.905334 186.321152,452.797638 187.459534,450.504852 
	C188.999344,447.403564 190.034958,444.019104 190.995026,440.672394 
	C191.878647,437.592194 192.925262,434.744232 195.149353,432.287292 
	C199.182892,427.831360 198.886200,421.960205 197.654755,417.061462 
	C195.585022,408.828033 200.279266,402.722504 202.422012,395.828125 
	C204.713593,388.454926 207.532150,381.246063 210.082794,373.952240 
	C210.519867,372.702362 210.568604,371.290588 211.133575,370.115540 
	C216.482468,358.990662 216.228897,346.869080 216.873032,335.047760 
	C217.324539,326.761414 220.343796,319.518677 223.194473,312.100006 
	C224.761032,308.023224 226.000977,304.030853 226.097672,299.570251 
	C226.248322,292.621246 230.624405,290.254303 236.945389,293.311737 
	C242.640411,296.066345 242.662506,296.076447 245.364807,290.166107 
	C246.116455,288.522156 248.368607,288.073120 248.328262,285.854645 
	C249.936356,292.321503 251.820435,293.803986 258.359314,293.759003 
	C261.357025,293.738373 264.354828,293.732086 267.858582,294.124512 
	C268.225769,295.340271 268.358490,296.628357 267.905304,296.886017 
	C264.134216,299.030121 265.838867,300.920776 267.544708,303.579712 
	C270.801208,308.655701 275.694916,311.886108 279.951782,315.839905 
	C281.668884,317.434753 282.992462,319.774719 285.952667,319.057465 
	C286.284912,317.994659 285.516846,317.510986 284.931030,316.982513 
	C280.490662,312.976868 276.116364,308.892242 271.555786,305.027679 
	C268.546173,302.477386 267.428619,300.443024 270.793213,297.010284 
	C273.432617,294.317444 276.579346,291.735687 278.172699,287.466064 
	C274.797211,287.773865 274.016754,291.892303 270.827240,291.300171 
	C271.786163,288.205322 272.357330,285.059143 273.624359,281.970245 
	C275.203247,278.121094 269.860321,268.088074 263.504700,268.281586 
	C260.247528,268.380737 256.984863,268.298981 252.230179,268.298981 
	C256.211365,263.123230 259.538147,259.342316 262.439209,255.278915 
	C264.729919,252.070435 267.877472,249.481613 270.368591,246.332993 
	C272.899658,243.133896 276.592194,243.521423 280.077301,244.338654 
	C283.073517,245.041245 285.093964,244.580704 286.497986,241.459167 
	C287.683685,238.823013 290.241608,237.353485 292.832336,236.042252 
	C297.993042,233.430328 302.787628,230.460587 302.654907,223.586411 
	C302.636566,222.636078 303.090179,221.635620 303.485443,220.728149 
	C304.046417,219.440140 305.002655,218.433624 306.512970,218.516876 
	C308.124420,218.605667 308.540497,219.925461 308.995575,221.244781 
	C311.440887,228.333878 315.096375,229.994705 321.093323,225.415237 
	C331.509308,217.461319 343.822266,212.467377 353.615112,203.457397 
	C357.694000,199.704605 364.166595,199.004120 368.949799,195.595200 
	C371.453461,193.810852 374.131195,192.199036 374.664368,189.014648 
	C375.783966,182.327560 380.794861,180.135345 386.241638,180.137695 
	C398.866608,180.143158 411.503967,180.811569 424.110229,181.618515 
	C429.802521,181.982880 435.327728,182.223785 440.951233,180.833328 
	C447.897064,179.115936 454.989807,178.002823 461.982117,176.460892 
	C471.171967,174.434372 479.531952,170.271118 487.885529,166.109131 
	C492.391479,163.864151 494.998627,160.225540 496.026825,155.383759 
	C496.376495,153.737091 496.525635,151.683044 497.903137,150.864914 
	C505.911041,146.108810 510.906189,137.626816 521.041016,135.083298 
	C533.017883,132.077454 543.988831,126.391205 554.005554,118.235672 
	C561.953674,111.764381 572.585510,108.816795 583.033813,107.150116 
	C587.019348,106.514374 590.901001,105.640182 594.546021,103.955589 
	C604.862061,99.187935 615.501953,97.921280 626.605042,100.551682 
	C630.802673,101.546120 634.903381,100.247871 638.958740,99.452148 
	C658.680786,95.582352 675.675171,100.386551 689.060181,115.627266 
	C702.832581,131.309097 719.914246,142.958862 736.336548,155.431564 
	C739.019653,157.469391 742.222656,158.879837 745.602112,158.826813 
	C754.274292,158.690720 762.854553,160.747772 771.523987,159.913742 
	C782.872498,158.821945 790.875610,164.236221 797.702942,172.560028 
	C807.484924,184.486115 814.167175,198.377884 822.384949,211.285370 
	C827.840271,219.853912 833.329651,228.418365 839.138245,236.721542 
	C846.104004,246.678940 849.968201,257.586578 852.023254,269.370575 
	C853.631104,278.589905 856.709778,287.417480 859.604858,296.285248 
	C861.381470,301.727081 863.721252,306.839874 868.141968,310.738312 
	C868.880554,311.389618 869.619019,312.180603 870.014038,313.061157 
	C876.279541,327.026398 881.952271,341.223267 883.901794,356.524902 
	C884.406250,360.484680 884.522278,364.430511 885.884521,368.257812 
	C888.599365,375.885101 888.786011,383.467621 885.820923,391.204407 
	C882.505676,399.854889 881.232727,409.294037 875.155884,416.859558 
	C873.386536,419.062256 873.105774,422.043304 873.664612,425.000488 
	C875.950928,437.099731 877.172913,449.428223 880.633118,461.267456 
	C882.878845,468.951141 880.137512,476.116730 879.517883,483.492126 
	C879.044861,489.122040 877.491821,494.671936 877.163391,500.300812 
	C876.678772,508.607758 871.735352,513.598633 865.470398,517.830017 
	C863.052612,519.462952 860.427429,519.227966 857.830322,518.108948 
	C855.483215,517.097595 853.501892,514.028625 850.686157,515.624329 
	C847.410706,517.480530 844.153076,519.617859 842.009460,522.957703 
	C841.247131,524.145447 841.108032,525.929749 838.871582,526.184753 
	C837.257385,523.794189 837.796204,521.833618 839.158020,519.137756 
	C842.191711,513.132446 840.777344,506.611206 839.916443,500.267822 
	C839.893188,500.096100 839.040222,500.037018 838.239685,499.526489 
	C837.375854,494.758667 838.996765,489.582245 833.168213,487.132629 
	C834.799622,491.457092 836.409546,495.724701 838.019470,499.992279 
M296.252808,252.140228 
	C290.643555,251.830383 287.729156,255.781189 284.828552,259.566620 
	C283.920349,260.751831 283.744476,263.024994 284.842804,263.761230 
	C287.398926,265.474701 287.549774,268.673004 289.751526,270.505341 
	C291.933685,272.321350 292.034637,274.007050 289.157959,275.355927 
	C286.002075,276.835724 287.463013,279.714478 287.500397,281.983643 
	C287.533936,284.021667 289.069061,284.694885 291.360992,283.965210 
	C290.354156,281.727966 287.527435,279.368439 290.948303,277.184357 
	C295.739227,274.125519 294.113342,271.209961 291.023895,268.176086 
	C290.551392,267.712067 290.190338,267.136017 289.728302,266.659668 
	C286.679596,263.516571 286.580688,260.771118 290.432312,258.053345 
	C292.851013,256.346649 295.366394,254.621597 297.633148,251.672913 
	C299.751984,250.383606 301.335663,251.006180 302.773407,252.896469 
	C304.281830,254.879654 305.958313,256.737640 307.605164,258.611847 
	C308.456940,259.581207 309.185028,260.802399 310.891663,260.185028 
	C312.424713,259.630463 317.523621,254.596375 318.365540,252.612122 
	C310.677216,256.993805 310.836243,258.116577 303.743927,250.909348 
	C301.387054,248.514282 298.580017,247.581238 296.252808,252.140228 
M771.688965,380.794739 
	C777.176636,378.225403 782.664368,375.656036 788.302063,373.016479 
	C787.754700,371.635315 787.477539,370.689636 787.025269,369.836792 
	C784.928589,365.882904 785.841797,363.214417 790.267578,361.960968 
	C790.743835,361.826080 791.272278,361.712402 791.652039,361.424683 
	C795.902893,358.204041 798.966492,358.532379 800.731567,364.099060 
	C801.426941,366.292145 802.955261,367.335449 805.108276,365.195007 
	C804.270996,364.317749 803.109619,364.261871 802.618225,362.892853 
	C800.730408,357.633209 795.112427,355.518646 791.089905,359.117737 
	C788.360718,361.559692 785.925720,361.411133 783.125122,360.269257 
	C783.039246,355.838959 786.245117,352.366272 786.644836,348.059540 
	C787.296326,341.041290 786.882812,333.915222 783.095703,328.058990 
	C780.819885,324.539703 781.047729,318.536011 774.972412,317.832458 
	C774.844238,319.970734 776.630615,321.001129 777.636963,322.395874 
	C786.013123,334.005157 786.066956,351.585907 778.234009,361.541504 
	C764.933472,378.446594 740.397522,379.434845 725.714478,360.371307 
	C720.532227,353.122192 717.325745,345.046875 718.192322,336.141632 
	C720.319275,314.284332 742.103577,301.449402 762.547729,309.635498 
	C763.218140,309.903961 763.937256,310.714661 764.721375,309.821899 
	C764.921326,308.495972 764.426392,306.848602 763.343140,306.986053 
	C758.986450,307.538910 755.609985,304.505035 751.448181,304.238220 
	C742.958374,303.693817 735.528870,307.207947 729.221802,311.640717 
	C720.828186,317.539917 715.628906,325.839081 716.024170,337.261200 
	C716.250549,343.804840 717.278931,349.993927 719.887695,355.647095 
	C720.654053,357.307678 720.935852,362.868805 726.176147,361.778656 
	C726.426575,363.067535 726.223145,364.841736 726.999756,365.567963 
	C732.806030,370.998077 739.556885,374.997009 747.378052,376.559723 
	C750.900452,377.263519 754.922058,377.492554 758.289795,376.494720 
	C763.998718,374.803192 770.373413,374.315918 774.186157,368.128113 
	C776.026672,365.141113 779.923035,363.420898 783.174438,361.957153 
	C783.598877,365.508270 782.745300,369.183563 784.807312,373.173218 
	C779.307251,372.396698 777.187622,378.406586 772.075073,378.017670 
	C771.052551,377.939941 771.155090,379.918915 770.331299,380.755432 
	C768.852905,380.665741 766.949402,379.938385 765.967224,380.593109 
	C760.796204,384.040039 754.676208,385.223175 749.269226,387.999329 
	C744.729126,390.330414 744.065796,394.078094 747.302551,397.963715 
	C748.170776,399.005890 748.421021,400.039398 748.254578,401.125092 
	C747.672180,404.923340 750.308228,406.532288 753.325745,409.202087 
	C752.722046,403.843475 750.510803,400.135956 748.385864,396.563690 
	C746.303711,393.063538 747.330627,391.831909 750.723450,390.408264 
	C757.589661,387.527130 764.249573,384.154388 771.688965,380.794739 
M280.996460,699.997620 
	C280.996460,699.997620 280.969055,699.964111 280.758698,699.320801 
	C278.659149,696.562012 276.627167,693.748108 274.435242,691.064819 
	C273.081482,689.407532 271.581757,688.910156 270.031219,691.081665 
	C266.978607,695.356750 268.258514,703.216431 272.884644,707.988037 
	C277.745758,713.002014 284.330688,713.962219 289.500946,710.161621 
	C286.940216,706.563904 284.370575,702.989502 280.996460,699.997620 
M662.585388,202.338913 
	C669.820862,206.044922 676.272339,211.189651 684.428955,214.508942 
	C686.795715,216.043427 689.137512,217.617996 691.533447,219.105545 
	C702.764709,226.078949 709.001160,240.038635 705.408447,251.751877 
	C698.927979,272.880432 680.376648,277.648865 662.374878,269.743835 
	C657.385071,267.552643 652.804016,264.432556 648.028015,261.751740 
	C646.424316,260.851562 644.501953,259.550751 643.069336,261.407227 
	C639.513550,266.015228 636.811279,271.128601 635.154785,276.733673 
	C637.315918,274.981232 639.226074,273.497803 639.976807,270.417694 
	C641.315674,264.924347 648.876160,262.563080 652.117249,266.103333 
	C656.671692,271.078094 663.223999,273.555908 669.008606,274.173004 
	C676.625061,274.985504 684.650940,276.363281 692.702087,272.304382 
	C697.388245,269.941925 700.556030,266.413086 703.091614,263.022400 
	C706.472778,258.500977 707.545898,252.218155 709.414185,246.626343 
	C709.867310,245.270218 710.168457,243.236252 709.484192,242.235275 
	C706.438660,237.780075 707.173157,231.735794 703.212891,227.766769 
	C702.198792,226.750397 700.581909,226.168732 699.913086,225.002487 
	C696.334900,218.763489 690.594788,215.802475 683.784607,213.289459 
	C683.482849,212.550247 683.374512,211.374542 682.848511,211.141388 
	C678.907043,209.394653 675.621155,206.095917 671.753418,204.893555 
	C668.584412,203.908432 666.396667,198.467926 661.906555,201.287460 
	C661.532654,197.775574 658.840027,198.377029 656.594788,198.396042 
	C655.035767,198.409210 653.298340,197.943878 652.387573,200.101944 
	C650.592712,204.354340 648.312500,208.283188 645.775940,212.223541 
	C639.957458,221.262070 635.392029,231.112549 629.407410,240.099533 
	C626.490784,244.479446 624.799377,249.479279 621.772888,253.886948 
	C620.007141,256.458435 616.671143,259.461670 617.864868,264.249847 
	C619.955566,261.147949 621.861206,258.639801 623.432556,255.937286 
	C633.468506,238.676315 643.424072,221.368668 653.421509,204.085297 
	C656.611145,198.571136 656.632568,198.583511 662.585388,202.338913 
M358.404724,246.525101 
	C360.681854,249.468704 363.815430,251.272400 367.355530,253.562729 
	C370.116669,256.505951 372.915741,259.397644 377.071381,261.107056 
	C376.301605,247.668427 374.931946,234.784042 372.990356,221.960571 
	C372.810272,220.771179 372.365051,219.479065 373.564972,218.784424 
	C378.343262,216.018219 382.957886,212.850571 388.758514,211.294266 
	C388.999023,212.901688 389.180847,213.859726 389.281097,214.826202 
	C390.360870,225.236252 391.476990,235.642838 392.486176,246.059784 
	C393.848236,260.119568 396.190399,274.083099 396.393219,288.258575 
	C396.539917,298.511322 391.707458,305.648468 383.054474,310.513672 
	C380.632050,311.875732 378.039948,312.935974 375.525665,314.134644 
	C375.661255,314.548462 375.796844,314.962280 375.932434,315.376099 
	C379.530609,313.910828 383.812500,313.225403 386.573181,310.804932 
	C391.177399,306.768158 395.874268,302.934265 397.829285,296.045074 
	C399.466614,290.275391 400.352234,284.991821 398.307922,279.721283 
	C397.044525,276.463928 396.811707,273.384674 396.644379,270.095978 
	C396.265717,262.654144 398.368561,254.837982 395.265076,247.857040 
	C392.687012,242.058044 392.758911,236.311523 392.703705,230.381897 
	C392.655609,225.217896 392.575165,220.051468 392.682526,214.889725 
	C392.747528,211.765549 391.504852,210.591400 388.336517,210.212265 
	C381.922211,209.444672 378.250763,214.129150 373.584045,216.883179 
	C368.963501,219.609924 369.655212,223.481613 371.719727,227.194946 
	C372.750763,229.049347 373.296112,230.763855 373.294342,232.793213 
	C373.289124,238.790405 373.359375,244.788010 373.301880,250.784515 
	C373.288635,252.167999 373.806763,253.848022 371.974854,254.811493 
	C370.410889,254.020737 368.902191,252.927353 366.764771,252.487427 
	C364.795898,249.033783 362.024200,246.668320 357.857513,245.300018 
	C355.084167,239.877304 349.920776,236.952377 345.269501,233.568268 
	C344.293365,232.858047 342.133331,232.970825 340.913147,233.543900 
	C336.401672,235.662750 331.830475,237.802109 327.726624,240.588913 
	C325.027496,242.421814 325.329651,246.339615 327.342468,248.045624 
	C336.828857,256.085968 346.660706,263.725769 356.521881,271.310120 
	C358.221344,272.617157 360.158173,274.108002 363.703735,274.242249 
	C351.207336,264.151489 339.443878,254.652603 327.295471,244.842880 
	C332.085968,241.009354 336.895782,239.099060 341.309448,236.547440 
	C343.402679,235.337311 345.070251,236.597946 346.731964,237.831909 
	C350.455902,240.597229 354.243530,243.276779 358.404724,246.525101 
M658.989197,248.992523 
	C658.989197,248.992523 658.963318,248.963196 659.370300,249.511734 
	C662.686096,251.355957 665.866760,253.525192 669.347839,254.971710 
	C675.241028,257.420593 681.067993,255.596863 684.359192,250.773743 
	C688.395081,244.859329 688.409729,239.638824 684.051880,234.876450 
	C678.918213,229.266312 671.914246,226.493668 665.275330,222.350250 
	C661.686401,228.387329 658.341919,233.890671 655.120117,239.464890 
	C651.398010,245.904739 651.657349,246.452118 658.989197,248.992523 
M300.445129,665.489990 
	C306.955963,670.547974 311.655029,677.129700 316.099060,684.808105 
	C316.375031,686.107666 316.550598,687.438354 316.942535,688.701965 
	C320.756958,700.998962 317.464355,711.619263 308.322571,720.050720 
	C299.174866,728.487793 288.522522,731.509033 276.107086,726.906433 
	C251.304810,717.711975 245.508972,688.510376 265.251404,671.185852 
	C266.670624,669.940491 268.608185,668.937317 268.497375,666.456421 
	C266.559326,666.238037 265.555664,667.944885 264.259338,668.648193 
	C258.245453,671.910889 253.304031,677.844971 252.841507,683.765503 
	C252.073364,693.598267 249.615616,703.958496 255.954758,713.678040 
	C261.593384,722.323425 268.632538,727.854431 278.659546,729.764526 
	C279.620697,729.947632 280.620453,730.185791 281.471649,730.642151 
	C284.653168,732.347778 287.973480,732.217896 291.108673,730.959229 
	C294.981445,729.404419 299.120575,729.543091 304.203918,727.703125 
	C293.357483,755.353088 306.426605,769.875488 330.313477,778.569031 
	C331.438446,777.772156 332.314331,776.635193 332.701477,775.113464 
	C318.360321,774.739136 306.002808,764.427307 303.377716,750.691650 
	C300.567261,735.986084 309.358917,719.647095 323.105286,713.901001 
	C329.485992,711.233887 336.008881,710.631775 342.639404,712.561890 
	C353.695160,715.780151 361.383392,722.636169 364.289124,733.908752 
	C366.694336,733.479370 366.708740,730.927307 369.158936,730.799683 
	C371.788940,732.699341 374.680542,734.909180 377.696045,736.934692 
	C381.311829,739.363342 381.191193,741.766479 378.658356,745.155762 
	C363.712372,765.155457 348.937775,785.283325 334.130127,805.386169 
	C333.518005,806.217224 332.204559,806.980042 333.742828,808.899658 
	C335.600006,807.501953 337.721802,806.189087 338.555420,803.977234 
	C341.417053,796.384644 347.504211,790.816772 352.177979,784.713745 
	C356.268921,779.371765 360.149323,773.533020 364.747375,768.372803 
	C371.364807,760.946228 376.685242,752.365234 382.574738,744.288208 
	C384.565735,741.557678 384.327087,737.520203 382.113129,736.731079 
	C376.901428,734.873535 374.274780,728.373962 367.810730,729.168213 
	C366.413422,729.339844 365.410370,728.606567 364.815430,727.095032 
	C361.308655,718.185730 353.677368,712.707153 345.396942,710.964355 
	C337.338745,709.268250 328.163452,708.270203 319.665649,712.693665 
	C319.665649,704.858154 319.596344,697.112244 319.702179,689.368835 
	C319.740662,686.553955 319.293457,684.368286 315.807739,683.230591 
	C314.512634,675.910706 310.759247,670.043640 304.813263,665.740601 
	C303.739380,664.963440 301.844147,663.233032 299.843079,664.350891 
	C299.077271,661.373779 296.702728,660.013733 294.095154,659.474915 
	C283.557159,657.297180 281.519958,658.988098 281.214417,669.608826 
	C281.160980,671.466431 281.924316,673.820251 278.917877,674.202881 
	C276.479828,672.258606 275.757874,667.945862 270.616913,668.740479 
	C280.146698,680.391052 289.271301,691.546204 298.563568,702.906372 
	C301.589996,699.381836 301.860291,696.317688 301.421356,693.081970 
	C300.241058,684.380981 294.765747,678.995911 287.118011,675.953003 
	C283.312286,674.438782 282.055725,672.745972 283.374847,668.964966 
	C283.806854,667.726624 283.930908,666.356628 284.038971,665.034058 
	C284.377594,660.891052 286.878387,660.007874 290.292847,661.119080 
	C293.600220,662.195557 296.775543,663.677795 300.445129,665.489990 
M250.670837,412.350677 
	C247.180222,412.269501 243.026474,413.370972 240.336212,411.862457 
	C234.633011,408.664490 228.740036,406.257965 222.652985,404.037292 
	C220.636169,403.301514 218.110291,403.882080 216.501175,401.387421 
	C214.468628,398.236298 210.853867,398.956421 207.796570,399.424072 
	C204.724564,399.893982 204.443146,402.665863 204.075333,405.193207 
	C203.935120,406.156738 203.669830,407.164490 203.202118,408.008301 
	C198.095352,417.221802 201.491394,423.660492 211.996536,424.737366 
	C214.043747,424.947235 216.280701,426.408234 217.740723,426.541962 
	C222.382355,426.967133 224.779358,430.908539 228.838898,432.348206 
	C233.506104,434.003357 238.321411,433.544739 242.596786,435.205383 
	C249.391388,437.844604 255.094513,435.040588 260.719116,432.553436 
	C264.894379,430.707214 267.530304,426.983398 269.612579,422.492249 
	C271.988220,417.368378 275.388397,412.811615 274.659363,406.757660 
	C274.370941,404.362396 275.151276,402.165527 276.342773,399.791473 
	C276.552124,399.649719 276.753326,399.497253 277.646210,398.981659 
	C278.690918,398.510925 280.444641,398.210083 280.289368,397.024170 
	C279.465668,390.733429 287.626038,387.051788 283.507782,378.938263 
	C287.769684,381.349396 289.166840,379.727844 290.870880,377.812347 
	C294.294159,373.964325 295.653412,368.869781 299.218292,365.021149 
	C300.500153,363.637268 300.591370,360.214905 297.015991,358.081909 
	C292.907104,355.630615 288.196411,354.153656 284.568756,351.042969 
	C281.754272,348.629639 279.272552,346.314117 275.649506,344.650482 
	C268.302490,341.276886 266.956085,333.777527 270.495850,325.986237 
	C271.539948,323.688141 273.666290,321.097534 272.219177,318.328522 
	C269.516846,313.157654 261.224030,309.434784 255.517624,310.330170 
	C253.557938,310.637634 252.559906,311.509766 252.343903,313.481720 
	C251.750839,318.896637 248.556671,323.655243 248.086670,329.018372 
	C248.086670,329.018372 247.845566,328.848175 247.724380,328.263214 
	C247.234497,326.447845 246.128586,326.055450 244.879471,327.405457 
	C242.102341,330.406982 239.450089,333.526520 236.823502,336.662109 
	C236.446014,337.112732 236.380081,337.915955 236.362061,338.561340 
	C236.242310,342.849457 235.930801,346.029724 241.180588,349.194305 
	C246.436005,352.362274 251.804276,356.492554 256.964020,360.039246 
	C263.516083,364.542908 269.049042,370.639343 276.528564,373.825043 
	C278.259399,374.562225 278.220947,376.196777 276.795807,376.819275 
	C274.677063,377.744751 271.112366,378.296844 270.220734,376.646698 
	C267.683044,371.950256 262.575531,372.083588 258.999023,370.849243 
	C252.645309,368.656464 246.610947,365.511902 240.091415,363.594971 
	C237.357712,362.791199 233.009399,362.658112 231.546860,360.411865 
	C229.505737,357.277039 227.352783,357.522339 225.033875,358.440857 
	C222.438553,359.468750 220.187042,361.371063 220.198883,364.640289 
	C220.207672,367.069183 219.010300,368.994507 218.176270,371.146790 
	C216.998367,374.186523 215.451111,378.633575 219.236206,380.384888 
	C228.762802,384.792755 238.864960,387.837280 248.434006,392.310730 
	C253.415649,394.639679 254.953400,397.637238 255.512390,402.588043 
	C255.948242,406.448273 252.294449,408.341766 251.895035,412.046783 
	C251.895035,412.046783 251.511307,412.367126 250.670837,412.350677 
M744.406311,633.065369 
	C741.368774,633.767517 739.705078,636.230713 738.278503,638.539795 
	C732.912720,647.224609 731.179504,656.768311 732.308105,666.877380 
	C732.439331,668.052612 732.724426,669.071838 733.347656,670.129272 
	C735.550415,673.867371 736.850464,678.057190 740.035156,681.926208 
	C735.509949,681.973389 733.427124,679.327209 731.939148,677.076599 
	C727.023132,669.640930 721.523804,668.869568 713.708069,676.769653 
	C711.742859,678.756042 709.115723,680.189087 710.812134,684.293152 
	C714.060791,681.049622 717.259094,678.215271 720.003052,674.993835 
	C721.915527,672.748474 723.266968,672.722473 725.238586,674.717285 
	C737.873718,687.501404 751.306152,699.489807 763.330139,712.884583 
	C764.312927,713.979431 765.350891,714.834167 764.417480,716.742737 
	C761.885254,721.920105 755.087891,726.027222 749.648987,725.251343 
	C749.763855,728.520813 748.662109,731.493103 747.252930,734.333557 
	C740.138428,748.673584 721.409912,759.594055 704.985657,743.353516 
	C698.945129,737.380676 692.805847,731.507446 686.790588,725.509521 
	C684.134827,722.861389 681.098145,720.529602 679.031372,717.242737 
	C681.554138,713.348755 685.221863,710.868896 687.992920,707.591980 
	C690.355652,704.797791 692.148987,705.202515 694.498413,707.533569 
	C701.238037,714.220703 708.074402,720.811829 714.942444,727.367737 
	C720.865723,733.021851 726.721924,733.469727 732.321960,728.851807 
	C737.895508,724.255798 739.325317,716.333740 734.626343,710.566895 
	C727.796631,702.185242 719.778015,694.878113 711.415710,687.997498 
	C711.322693,687.920898 710.890564,688.256287 710.617676,688.400879 
	C710.392029,689.354309 710.963806,689.907776 711.566650,690.529602 
	C718.577698,697.761841 725.461243,705.121704 732.607849,712.216736 
	C735.544678,715.132324 736.320068,718.370911 734.283936,721.575439 
	C731.650574,725.720032 729.089539,730.649719 722.592041,729.216736 
	C721.476013,728.970581 720.562805,728.842590 719.596436,727.876648 
	C717.692688,725.973816 715.589111,724.285706 713.849426,722.180054 
	C709.055603,716.377808 702.884460,711.959290 697.957947,706.228760 
	C693.436279,700.969055 687.624817,701.981506 684.198303,708.002747 
	C683.876099,708.568909 683.677917,709.460327 683.204163,709.646729 
	C677.384338,711.936829 676.906616,716.642822 677.889832,722.104004 
	C676.228943,722.188171 674.902344,722.437683 673.621155,722.290771 
	C665.278442,721.334167 658.706238,725.560303 652.710510,730.225159 
	C648.036804,733.861389 644.793457,739.389465 637.641907,738.666931 
	C636.360962,738.537537 636.123596,740.154907 637.242615,741.574829 
	C639.927368,740.767761 642.579712,740.910461 644.551514,744.029053 
	C648.568909,734.100647 655.894348,728.815491 665.384644,726.323486 
	C669.444336,725.257507 673.646118,725.076111 677.676270,726.667847 
	C690.167908,731.601440 692.727234,746.836487 682.697510,756.607178 
	C677.639282,761.534729 671.478149,764.898254 665.511841,768.539001 
	C663.906433,769.518738 661.305298,770.603149 663.552185,772.987000 
	C665.883240,775.459961 669.093323,777.306702 672.521973,776.149841 
	C677.048462,774.622498 681.456421,772.742126 684.874817,768.933105 
	C687.409424,766.108765 689.100159,762.671631 691.640625,759.906433 
	C694.713867,761.096619 697.164612,762.819885 699.778381,764.251892 
	C703.910889,766.515930 703.572266,769.033508 701.160095,772.315735 
	C696.347351,778.864258 690.545776,784.342834 683.360291,788.095093 
	C670.333191,794.897766 657.759338,797.581970 646.131775,780.413330 
	C640.352600,771.879944 635.245178,762.893921 629.568726,754.287537 
	C627.287476,750.828857 625.926636,748.071716 631.836548,746.161621 
	C627.743286,744.964417 626.213196,745.842651 626.208679,749.309570 
	C626.204346,752.676331 626.014465,755.799255 628.962341,758.429871 
	C630.799561,760.069275 632.472961,762.414124 633.125977,764.748474 
	C634.428772,769.405029 636.970398,773.190979 640.272339,776.409546 
	C641.661316,777.763428 642.451660,779.181885 643.261597,780.803162 
	C647.104675,788.496094 653.660156,792.910400 661.508667,795.780762 
	C669.853821,798.832947 677.240295,794.212036 683.948975,791.295044 
	C689.079346,789.064270 694.669312,785.159302 698.583923,780.225464 
	C701.129456,777.017151 703.045959,773.359863 705.274475,769.956665 
	C706.855103,767.542969 707.098633,765.794189 705.067078,764.536987 
	C699.980286,761.388855 695.606262,756.300293 688.643005,757.621521 
	C687.759277,756.796631 687.528870,755.522888 688.166687,754.877441 
	C691.571289,751.432068 690.519714,747.129028 690.696960,743.062683 
	C690.769409,741.399780 690.665222,739.729370 690.736267,738.066345 
	C690.777466,737.101440 690.762695,735.990540 692.075195,735.721130 
	C693.258911,735.478027 693.641357,736.291321 694.351318,737.088867 
	C697.810364,740.974121 701.024353,745.217224 705.777039,747.654785 
	C709.115112,749.366882 713.150635,750.090393 715.951416,752.383240 
	C719.310364,755.132935 723.406494,755.782898 726.156555,754.282654 
	C730.779053,751.760986 736.356323,751.200439 740.300415,747.791748 
	C745.732910,743.096497 750.181335,737.491455 751.098450,730.243469 
	C758.788818,729.117188 762.321899,722.828857 767.031189,718.393311 
	C768.760132,716.764832 768.245850,713.178406 766.269104,710.998535 
	C763.186401,707.599121 759.760620,704.511597 756.663391,701.124390 
	C752.655823,696.741577 747.350830,693.563599 744.265442,688.191284 
	C745.620911,687.382935 746.919189,687.377258 747.721680,688.190857 
	C751.517578,692.039429 757.076904,692.569946 761.490051,693.250977 
	C771.215698,694.751892 781.018616,693.623901 787.714905,684.243103 
	C789.143433,682.241882 790.997314,680.042480 793.108826,678.589905 
	C800.355774,673.604309 801.761719,665.669373 802.679871,658.141357 
	C803.883850,648.270386 800.991150,639.676880 793.609070,631.821106 
	C787.792664,625.631531 780.657959,623.175232 773.615234,620.674744 
	C766.286926,618.072937 759.040771,622.168579 752.281067,625.218506 
	C748.978027,626.708862 745.421997,628.586243 745.002686,633.002197 
	C745.002686,633.002197 745.035034,632.972961 744.406311,633.065369 
M607.592285,733.383545 
	C609.572754,731.686218 610.585571,729.315552 611.408691,727.010681 
	C616.713806,712.155151 628.524536,705.131348 642.603088,700.790710 
	C645.164185,700.001160 648.165588,699.080017 650.128296,701.409546 
	C653.607788,705.539307 656.076538,703.095276 658.842407,700.903870 
	C656.994812,696.012390 658.289001,690.757263 663.716736,687.868958 
	C673.691650,682.560791 682.878357,675.927063 693.044800,670.993103 
	C695.098145,669.996460 697.266846,669.775757 699.331055,670.776794 
	C703.778564,672.933716 706.953430,671.509399 709.543884,667.621643 
	C714.532227,660.135132 715.093079,656.205627 711.357483,651.856323 
	C709.860046,650.112976 708.616211,648.459595 709.562744,646.060730 
	C712.004761,639.872192 711.446350,633.621948 709.803040,627.411743 
	C708.713867,623.295471 709.081482,619.281311 711.248535,615.822937 
	C717.421387,605.971863 722.834351,595.517578 731.761658,587.681335 
	C735.836731,584.104248 737.948792,579.576599 739.172180,574.405518 
	C742.294006,561.209106 744.744751,548.106445 741.330139,534.451477 
	C738.466675,523.000854 739.859009,510.874695 736.343750,499.431427 
	C733.246887,489.350098 731.238708,479.024658 731.976562,468.414581 
	C733.071655,452.666199 729.446777,438.785126 719.340027,426.051361 
	C710.661804,415.117371 700.256897,409.128662 686.605713,409.002533 
	C672.200500,408.869385 659.221558,405.679077 649.158081,394.525665 
	C647.837402,393.061951 646.101868,391.968201 644.537842,390.729187 
	C637.510925,385.162598 630.578979,379.473022 624.817261,372.557068 
	C611.334900,356.373688 607.634644,334.635864 594.194214,318.410675 
	C593.887939,318.041016 593.690918,317.522675 593.597595,317.043579 
	C591.960632,308.639984 585.898682,303.891449 579.447327,299.203339 
	C571.444519,293.387848 565.123901,285.838318 559.357788,277.845947 
	C557.429749,275.173462 557.173340,271.982422 558.561523,269.274384 
	C560.627014,265.245087 561.107788,261.512543 558.426453,257.755463 
	C560.373657,255.595642 562.679504,256.035889 564.749268,255.726578 
	C566.677673,255.438370 568.383850,254.861404 568.611755,252.562515 
	C569.209473,246.533524 568.629089,240.664261 571.260681,234.519241 
	C573.587585,229.085617 570.697449,222.101730 574.836670,216.121353 
	C577.226807,212.668137 575.451416,207.649689 575.680115,203.342178 
	C575.773560,201.582138 575.477722,199.904922 576.901489,198.220932 
	C580.063049,194.481567 588.473572,193.130402 593.019165,196.008224 
	C597.031982,198.548767 602.231140,198.163635 603.507507,194.961319 
	C605.210327,190.688583 604.506714,185.822235 606.531799,181.542007 
	C607.028320,180.492599 606.028503,179.381821 605.250610,178.458023 
	C603.268555,176.104340 600.768677,175.291534 597.729980,175.325058 
	C593.074219,175.376404 587.551453,176.681580 583.967834,174.663956 
	C579.062195,171.902008 574.432922,172.793488 569.642700,172.349976 
	C567.522888,172.153717 565.147400,172.869614 563.396423,171.262650 
	C560.860352,168.935181 557.732910,168.558136 554.620178,168.391022 
	C550.647583,168.177734 546.849060,167.875107 542.913147,166.668152 
	C533.894836,163.902679 531.306274,166.150070 531.304016,175.440323 
	C531.303589,177.273544 531.333679,179.107498 531.292358,180.939804 
	C531.252563,182.704514 532.020752,183.740967 533.334290,185.071396 
	C537.868835,189.663971 543.068115,187.180573 548.058350,187.208023 
	C544.950867,186.024811 541.781982,185.174652 538.565918,184.579330 
	C531.955688,183.355667 531.690979,183.047440 533.013306,176.552399 
	C533.212524,175.574036 533.578003,174.605911 533.618164,173.622894 
	C533.790100,169.418152 535.988708,168.246338 539.919006,168.904343 
	C557.806946,171.899033 575.758545,174.537994 593.593262,177.816391 
	C604.489929,179.819427 604.676636,180.866959 601.548950,191.768555 
	C600.813782,194.330963 599.688599,194.939194 597.307861,194.509857 
	C591.905029,193.535568 586.445984,192.845673 581.077942,191.716278 
	C577.268616,190.914856 575.794250,191.964386 575.151550,195.968750 
	C572.409729,213.051422 569.276489,230.070953 566.355103,247.125351 
	C565.774780,250.513153 564.289978,252.166107 560.848755,251.204712 
	C560.234619,249.851379 560.929077,249.026154 561.233643,248.092667 
	C563.514221,241.102295 565.617188,234.080902 564.049316,226.581512 
	C562.735779,220.298569 559.477112,217.614014 552.585022,217.817352 
	C554.066772,207.799271 555.531738,197.894928 557.008911,187.907608 
	C554.692200,187.262543 552.934265,186.688217 552.822754,189.701172 
	C552.652527,194.302078 552.726013,198.937958 552.152893,203.490585 
	C551.600952,207.875320 549.719604,212.155136 549.596008,216.514297 
	C549.465393,221.126877 547.993225,225.057770 546.168518,229.185120 
	C542.537231,218.841858 542.537231,218.841858 531.950195,221.739807 
	C524.521118,223.773346 520.881470,228.991730 522.240295,236.506165 
	C522.890442,240.101669 522.077209,243.356354 521.343811,246.740799 
	C521.032410,243.943405 521.044312,241.151535 521.030579,238.359787 
	C520.922607,216.362579 520.753723,194.365387 520.747437,172.368164 
	C520.746216,168.190018 519.250793,166.123138 514.924988,166.251846 
	C510.928894,166.370743 506.922272,166.158081 502.927643,166.299362 
	C498.073578,166.471039 495.547119,170.137085 495.764099,174.723099 
	C496.175354,183.415497 497.485199,192.032013 498.010376,200.656403 
	C498.869629,214.766373 498.157837,228.972168 498.103516,243.137527 
	C498.085297,247.892990 496.606262,253.456772 504.760651,253.758575 
	C501.599762,255.115417 498.834686,255.405823 496.659027,253.628983 
	C492.932770,250.585938 489.588165,251.281815 485.647827,253.239716 
	C479.711639,256.189331 473.510834,254.379807 470.018494,248.846466 
	C468.582184,246.570755 467.247437,244.814026 464.475830,245.420959 
	C463.080994,241.979568 463.751892,238.484985 460.709045,235.645264 
	C456.952057,232.138992 452.882812,233.498489 448.937073,233.338257 
	C443.176880,233.104355 438.388336,238.043076 438.267487,243.784424 
	C438.221924,245.949310 438.204041,248.121048 438.320221,250.281784 
	C438.563141,254.798798 440.382690,258.121857 445.312988,258.782501 
	C446.959412,259.003143 448.305695,259.676056 448.669525,261.297180 
	C449.104675,263.236053 447.442993,263.968353 446.062653,264.376038 
	C441.258636,265.794922 441.280853,269.601837 442.813843,272.764282 
	C444.903473,277.075073 445.148102,281.391785 444.897797,285.871948 
	C444.655823,290.203003 446.373535,292.879608 450.615570,293.945587 
	C452.235321,294.352600 454.010590,294.814484 454.219330,296.864075 
	C454.401581,298.653168 452.867462,299.408112 451.651367,300.249969 
	C446.372192,303.904572 443.119324,308.493195 443.906769,315.348511 
	C444.341248,319.131042 442.190277,322.196808 439.670807,324.621063 
	C426.698242,337.103607 423.603607,353.752167 420.308807,370.267181 
	C419.671783,373.460327 419.118225,376.517548 416.944611,378.935333 
	C413.851776,382.375488 413.517303,386.357330 414.093811,390.633057 
	C415.074463,397.905670 416.163269,405.176910 418.598267,412.117615 
	C420.234863,416.782623 419.823303,421.220032 418.570618,425.836182 
	C415.950378,435.491669 408.470459,441.258942 401.500000,447.397888 
	C399.882935,448.822021 397.488739,448.963959 395.270721,448.660706 
	C392.300903,448.254761 389.321594,447.886627 386.375824,447.342651 
	C377.001984,445.611664 374.457123,442.852417 372.840424,433.404022 
	C371.748260,427.021210 371.942566,420.313599 369.102631,414.350739 
	C363.874481,403.373474 358.410583,392.508545 350.873749,382.842377 
	C346.772736,377.582764 343.238739,376.737488 337.557098,380.341705 
	C332.624817,383.470520 328.362701,387.481659 323.904755,391.240204 
	C318.581329,395.728455 315.053070,401.115936 314.054962,408.066406 
	C313.081635,414.844116 311.618591,421.517975 309.404510,427.997131 
	C307.905701,432.383209 307.634247,436.834778 308.449280,441.312012 
	C309.371216,446.376801 308.813629,451.173859 307.234833,456.059601 
	C305.239899,462.233185 303.410065,468.513824 304.365265,475.168823 
	C305.669922,484.258789 306.670532,493.451294 305.756744,502.556580 
	C305.007202,510.025055 306.302551,516.958557 307.585419,524.203430 
	C311.231171,544.792236 324.165344,558.060181 340.746124,568.789185 
	C344.651672,571.316345 349.395691,572.842957 352.386414,576.437805 
	C364.888153,591.464783 381.776947,601.122192 396.750366,613.107361 
	C401.493713,616.904114 407.706146,618.067505 413.380798,619.742371 
	C425.508453,623.321899 431.626556,632.592163 436.651093,642.861206 
	C439.785645,649.267517 441.894623,656.177917 444.425049,662.876770 
	C445.936890,666.879089 448.389374,670.242554 451.670746,672.884155 
	C461.045868,680.431519 471.099304,686.723938 482.290955,691.484741 
	C492.783752,695.948303 503.485504,700.324829 511.870941,708.744934 
	C516.780884,713.675171 521.928528,718.783386 528.632874,721.160767 
	C545.913269,727.288574 563.597351,731.738953 582.104614,731.854126 
	C585.455261,731.875000 588.612671,732.212463 591.841248,733.478027 
	C596.709229,735.386230 601.862915,735.897888 607.592285,733.383545 
M447.591248,876.024658 
	C453.847076,877.872253 459.365997,881.536682 465.424927,883.676514 
	C482.485901,889.701904 505.127258,882.846619 516.671448,868.772888 
	C521.716309,862.622681 521.990417,848.648804 516.812988,844.695740 
	C513.277405,841.996216 509.566101,839.373291 505.142059,838.104614 
	C501.346588,837.016174 501.441040,835.112122 503.187164,831.819214 
	C504.971924,828.453430 508.523926,824.911377 508.292999,821.779968 
	C507.551422,811.724670 511.213776,801.655457 505.367706,791.375244 
	C501.268311,784.166443 496.013580,778.621094 490.328735,773.395447 
	C482.895996,766.563232 472.542603,765.633179 463.200806,764.775024 
	C455.041901,764.025574 446.517944,767.093872 439.105133,771.212769 
	C432.707520,774.767578 432.497253,778.688110 437.434265,784.439941 
	C438.283936,785.429932 438.056427,786.651062 438.484131,787.697449 
	C440.688019,793.089722 444.709015,793.699402 449.864349,790.805237 
	C453.561279,788.729858 457.303162,786.160461 462.238464,786.597168 
	C465.895081,786.920593 468.937561,787.817139 472.295319,789.403442 
	C478.506714,792.337830 484.691895,800.072083 485.384125,806.810974 
	C485.904724,811.879089 484.816437,816.639771 482.017700,820.337585 
	C477.982849,825.668701 474.059601,831.293640 465.722900,831.495789 
	C457.546906,831.693970 450.554016,829.898315 444.774902,824.288757 
	C442.007324,821.602356 438.601349,821.501160 436.021729,822.688599 
	C432.603149,824.262146 428.725037,825.433533 426.050751,828.495300 
	C424.730804,830.006348 424.089966,831.448486 424.953064,833.449707 
	C426.761475,837.643005 429.331207,841.432312 433.317230,843.479309 
	C435.766785,844.737305 436.571686,846.448120 437.695892,848.360107 
	C434.302185,851.050659 431.693420,845.960754 428.463226,848.069763 
	C428.530945,851.149292 430.062469,853.403076 432.363647,855.186096 
	C433.749664,856.259888 434.843811,857.478394 434.931396,859.268005 
	C435.328735,867.383606 440.825775,871.769897 447.591248,876.024658 
M414.803223,737.210754 
	C412.757538,738.273438 410.672852,739.151672 408.939362,740.852234 
	C400.347443,749.280823 391.809174,757.778503 382.908081,765.873596 
	C374.154694,773.834351 367.235657,783.604919 357.521271,790.649780 
	C352.698853,794.147034 353.564056,797.953674 358.638733,800.689209 
	C362.110718,802.560852 366.162262,802.771423 369.497284,805.339355 
	C371.454346,806.846375 374.403351,805.510742 375.874207,803.088501 
	C376.742310,801.658875 377.880554,800.645996 379.021484,799.484253 
	C383.693848,794.726501 389.407349,791.136658 393.334351,785.419189 
	C395.079315,782.878540 398.130493,779.474121 402.941742,780.048645 
	C403.171265,784.535339 400.816376,788.460083 401.152771,792.858765 
	C401.568085,798.289490 401.630890,803.774109 400.533142,809.257141 
	C400.022339,811.808655 399.034454,815.307068 401.726715,817.225769 
	C405.629089,820.007080 409.774200,822.649475 414.179474,824.472168 
	C419.630127,826.727356 422.720581,824.154297 422.665558,818.159485 
	C422.651855,816.670776 422.372101,815.186584 422.280731,813.696289 
	C421.209015,796.218872 422.071777,778.721436 421.770386,761.235352 
	C421.716614,758.116150 424.400818,756.625916 426.533051,755.401550 
	C428.516235,754.262695 430.569580,754.895264 432.683655,756.852661 
	C438.927185,762.633484 445.181671,761.831299 451.069702,755.588867 
	C454.354095,752.106812 454.386993,749.429749 451.678101,745.303833 
	C449.462646,741.929443 446.078918,741.060852 443.302856,739.121948 
	C434.617340,733.055725 424.952759,734.580811 414.803223,737.210754 
M223.744736,636.157837 
	C223.250153,636.225586 222.732819,636.222046 222.264389,636.371643 
	C215.007660,638.690002 211.331024,641.349976 216.917191,650.006958 
	C219.756607,654.407166 227.035812,656.529236 224.697113,663.868652 
	C224.651520,664.011719 225.270828,664.284790 225.344086,664.559998 
	C226.235291,667.907959 228.368881,670.655334 229.743668,673.761597 
	C231.510468,677.753662 235.065826,679.045349 238.883438,676.883606 
	C239.880325,676.319153 240.687210,675.210022 241.726700,674.963074 
	C250.107910,672.972595 256.675171,667.325317 264.135223,663.537292 
	C266.540924,662.315796 269.258881,662.089294 271.617493,660.426636 
	C276.001617,657.336121 280.859100,654.546265 285.932220,652.914062 
	C290.510071,651.441162 291.665710,648.585693 290.424011,645.105896 
	C288.674255,640.202454 286.035919,635.561523 283.332916,631.076355 
	C282.016541,628.892090 278.361816,628.328430 277.100952,629.725403 
	C274.738770,632.342529 271.885468,632.825500 269.018585,634.084717 
	C263.419800,636.543701 258.343262,640.160950 252.885910,642.980103 
	C244.783997,647.165283 240.337646,645.793945 235.560989,638.063293 
	C232.101517,632.464355 228.066650,631.682922 223.744736,636.157837 
M743.626099,294.080597 
	C742.154602,295.730347 740.207214,297.025818 738.904236,300.471802 
	C743.215698,297.158417 746.347839,294.500793 749.104553,291.334320 
	C751.226135,288.897339 751.235901,286.601013 749.319641,284.210876 
	C746.439026,280.617828 741.734985,279.939636 738.109192,277.467041 
	C736.577881,276.422729 734.807800,276.074890 734.675110,273.890015 
	C734.552856,271.876160 733.426453,270.310608 731.952026,269.309265 
	C729.244202,267.470276 726.728271,265.542084 725.006104,262.697021 
	C724.324280,261.570557 723.077271,261.636230 721.935852,261.368774 
	C718.288696,260.514099 716.834473,263.304901 714.652039,265.246185 
	C705.711060,273.199249 697.351013,281.703827 689.773621,290.952087 
	C686.506592,294.939423 684.192749,299.715759 679.783997,302.743469 
	C676.519897,304.985046 677.331238,308.492462 678.608765,310.817413 
	C681.114563,315.377838 685.956360,317.971924 689.702148,321.514069 
	C690.527710,322.294769 691.893738,321.549866 692.848816,320.724518 
	C697.469910,316.731079 702.054688,312.691956 706.771545,308.814026 
	C710.335999,305.883545 712.553223,301.845825 715.647034,298.544556 
	C719.961487,293.940674 721.949280,294.474701 727.479675,295.960297 
	C730.348389,296.730865 732.122009,300.867981 735.980835,299.087067 
	C729.170288,290.454742 719.789978,290.031891 712.345581,297.919250 
	C707.434143,303.122955 702.756409,308.546387 697.931824,313.832916 
	C691.896240,320.446503 691.871094,320.436218 685.549011,314.390442 
	C684.225769,313.125061 683.107788,311.602936 681.653259,310.525909 
	C678.661255,308.310394 678.688965,306.715607 681.409790,303.887817 
	C692.598694,292.259094 703.628784,280.465851 714.377563,268.429779 
	C720.649414,261.406769 720.360962,261.147980 726.867493,267.686707 
	C727.219727,268.040619 727.501831,268.477722 727.891785,268.778625 
	C731.663940,271.688995 733.415344,274.887970 728.714294,279.060181 
	C733.754883,279.305237 737.928406,280.192444 741.895386,282.040588 
	C749.736694,285.693695 750.080994,287.370575 743.626099,294.080597 
M822.329407,393.415497 
	C823.832642,399.385071 828.639832,396.578613 831.802246,396.433838 
	C837.828857,396.157898 843.179199,389.010834 840.211853,385.301941 
	C837.287476,381.646729 837.296021,377.273895 834.981201,373.495544 
	C829.599365,364.711609 817.553894,358.562866 806.957275,362.300781 
	C807.365479,365.032227 809.061279,364.720673 810.964722,364.066071 
	C813.024597,363.357605 815.093811,362.818359 817.319824,363.385284 
	C827.014648,365.854553 833.336792,371.990601 836.315918,381.395905 
	C839.862732,392.593079 839.425537,392.944244 827.697571,393.575500 
	C824.939087,393.723938 823.672424,393.117584 823.480469,390.269958 
	C823.319336,387.881195 822.155762,385.813751 820.480103,384.093353 
	C817.851929,381.395172 814.575745,381.471832 811.748047,383.111145 
	C808.716736,384.868500 811.304199,387.148560 812.078613,389.150665 
	C812.798767,391.012421 813.511597,392.879364 814.311035,394.707520 
	C815.283264,396.930756 814.827576,398.225647 812.491211,399.446320 
	C803.435120,404.177826 803.398254,404.316895 798.843872,395.381348 
	C796.978455,391.721558 794.879211,390.629791 790.941650,392.636230 
	C785.317993,395.501862 779.423828,397.834595 773.662048,400.432129 
	C768.258423,402.868103 762.876526,405.352417 757.485107,407.815460 
	C757.744568,408.398499 758.004089,408.981567 758.263550,409.564606 
	C770.447327,404.336273 782.631104,399.107941 795.485718,393.591705 
	C795.192383,397.045624 798.929321,399.108765 799.298279,402.739136 
	C799.549255,405.208893 800.937744,405.446533 802.975281,405.752747 
	C807.634827,406.453003 810.692139,402.724457 814.674194,401.549255 
	C815.996094,401.159119 820.101440,397.478027 817.846191,394.313446 
	C815.797852,391.439178 815.293274,387.644714 811.135315,385.328186 
	C819.575867,386.073608 821.350098,387.354279 822.329407,393.415497 
M766.888794,335.771240 
	C766.308777,334.574280 765.853333,333.295258 765.128296,332.193756 
	C760.684021,325.441345 752.510376,323.063812 745.450317,326.403931 
	C737.496643,330.166748 733.275818,338.112762 735.348633,345.421234 
	C737.473633,352.913788 745.040283,357.892426 752.079346,356.429626 
	C762.668030,354.229248 768.732178,346.216492 766.888794,335.771240 
M331.114838,730.439819 
	C327.849457,732.288696 325.402740,734.965027 323.493134,738.139343 
	C320.166779,743.668701 320.537415,751.763245 324.250397,755.936279 
	C329.623199,761.974792 337.668976,763.225220 343.938995,758.996094 
	C351.809418,753.687500 355.025970,744.664490 351.614105,737.466064 
	C348.413086,730.712585 339.599457,727.436096 331.114838,730.439819 
M548.794861,789.837402 
	C551.902954,794.318237 556.595825,792.060913 560.635376,792.685974 
	C566.856506,793.648438 568.890869,788.207581 571.109985,784.765076 
	C572.777283,782.178650 572.400146,777.656982 570.458618,773.905029 
	C566.996460,767.214233 561.326477,766.875000 554.960327,767.171387 
	C548.015015,767.494629 541.291443,777.590393 544.260742,783.840515 
	C545.223267,785.866638 546.854309,787.575134 548.794861,789.837402 
M373.214844,284.582092 
	C376.281097,285.453430 377.587189,287.193237 377.581299,290.656097 
	C377.575256,294.191833 374.992462,295.259369 372.979858,295.538605 
	C369.593292,296.008453 365.445374,299.384460 362.447632,293.923553 
	C360.040253,297.708374 357.733765,301.334564 355.114288,305.452850 
	C357.958130,305.437256 358.299438,301.708405 360.943207,303.427917 
	C362.328735,307.132324 360.054077,311.509735 362.507629,315.350464 
	C364.344696,313.234406 364.532074,313.216400 363.902863,306.664856 
	C363.446960,301.918274 363.746002,299.017517 369.935089,298.775330 
	C377.016785,298.498230 381.889893,292.040924 379.236237,287.068024 
	C376.936890,282.759064 372.208862,280.582764 367.660950,278.692688 
	C369.453278,280.528351 371.265686,282.217194 373.214844,284.582092 
M812.707214,452.040466 
	C816.855713,446.574860 816.863342,440.798615 813.168823,435.313416 
	C810.667603,431.599854 807.188477,428.764069 801.738098,429.414368 
	C802.158813,438.847046 805.235229,447.127411 807.700134,455.496765 
	C810.210022,455.229980 811.217773,453.871826 812.707214,452.040466 
M653.979675,758.302917 
	C654.863037,759.495605 655.677429,761.056946 657.519104,760.068604 
	C662.033936,757.645691 666.853455,755.546692 670.388184,751.754272 
	C673.888184,747.999146 671.837524,742.139221 667.053162,741.348511 
	C658.453979,739.927551 650.604919,749.474243 653.979675,758.302917 
M208.177704,546.345581 
	C210.573517,548.006348 212.919327,549.822998 216.425598,549.157349 
	C215.721298,539.905334 215.038651,530.937744 214.352036,521.918091 
	C204.942368,523.367554 199.756790,536.372314 208.177704,546.345581 
M806.036072,483.550323 
	C807.663818,482.480255 809.291626,481.410156 811.624695,479.876373 
	C808.362000,479.374146 807.697205,477.773346 808.959412,475.375061 
	C807.494934,475.375061 806.390442,475.077637 805.554077,475.425262 
	C801.392883,477.154694 799.542175,475.702240 798.989868,471.387695 
	C798.613586,468.447601 797.622070,465.586304 796.671570,461.743561 
	C795.250000,471.002350 796.472412,477.894379 806.254578,479.905762 
	C799.104736,489.899780 799.104736,489.899780 800.242065,494.470398 
	C801.382507,490.448303 803.135071,487.085602 806.036072,483.550323 
M319.720337,793.195251 
	C322.331482,789.149292 326.071472,785.834106 328.173340,780.726013 
	C324.693268,782.705078 322.417084,785.040771 320.310486,787.524353 
	C317.001343,791.425659 314.254578,796.254150 316.929749,800.865417 
	C319.369263,805.070435 324.995819,806.074463 329.363281,808.275513 
	C326.429382,805.255066 323.324615,802.537903 319.944580,800.222717 
	C316.916016,798.148315 317.031982,796.169678 319.720337,793.195251 
M312.037689,344.379700 
	C315.807312,343.888214 321.630615,338.376923 321.768494,335.162415 
	C320.830139,334.905334 320.187195,335.451385 319.570831,336.009430 
	C313.302216,341.684875 313.307709,341.681610 306.346863,336.667114 
	C305.717346,336.213593 304.998657,335.883881 304.321350,335.496704 
	C305.069672,339.881775 309.534088,340.982208 312.037689,344.379700 
M325.603516,269.964569 
	C327.581512,267.718079 331.772156,268.108887 331.813843,263.316650 
	C331.866089,257.312958 327.509644,255.928604 323.993622,253.400055 
	C325.367310,257.015839 328.826447,259.247986 329.946350,262.997589 
	C328.886047,265.070953 326.938629,266.144409 325.417969,267.633667 
	C324.726227,268.311096 324.764587,268.350281 325.603516,269.964569 
M760.483093,714.839722 
	C758.644836,712.182312 756.900024,713.399292 755.314453,715.067688 
	C754.525330,715.897888 753.820312,717.251587 754.902466,718.104553 
	C756.929382,719.702026 758.521118,718.178040 759.957825,716.816772 
	C760.281128,716.510437 760.366577,715.953064 760.483093,714.839722 
M286.893005,290.315582 
	C286.023621,288.396545 284.940308,286.971069 282.366394,288.390015 
	C283.682861,290.920624 285.755981,291.960052 289.115326,293.175018 
	C287.988617,291.780853 287.592743,291.291016 286.893005,290.315582 
z"/>
<path fill="#000000" opacity="1.000000" stroke="none" 
	d="
M200.990814,582.007751 
	C204.580582,582.440857 208.187592,582.808044 211.776321,583.306885 
	C214.510971,583.687073 214.538605,585.802856 214.372620,587.868835 
	C213.966476,592.924500 214.812347,597.801941 216.438660,602.554382 
	C216.970367,604.108154 217.615814,605.684021 218.530991,607.031250 
	C219.915237,609.068909 221.386429,611.463257 224.459213,610.475464 
	C227.331619,609.552063 227.200516,606.739075 227.085938,604.583008 
	C226.813553,599.456909 226.090469,594.352234 225.481003,589.247131 
	C224.274078,579.137390 227.656464,571.980835 235.130569,568.954712 
	C243.497070,565.567322 251.743500,568.260925 257.798706,576.384949 
	C258.986023,577.977905 260.099030,579.626282 261.491821,581.395264 
	C261.737335,581.541321 262.023285,581.945862 262.201752,582.485901 
	C264.894287,591.115173 267.562500,599.129456 267.399200,607.810608 
	C267.199432,618.432861 266.642975,618.902771 256.186340,616.409546 
	C253.249176,615.709229 251.766632,614.783325 252.449371,611.439209 
	C253.752258,605.057617 252.475342,598.836243 250.448517,592.799622 
	C249.298538,589.374573 247.862503,584.762451 243.555023,585.618042 
	C238.699173,586.582642 240.243073,591.355774 240.803986,594.844177 
	C242.313156,604.230103 243.854416,613.580688 239.355087,622.638855 
	C239.355087,622.638855 239.052719,622.946533 238.594147,623.178345 
	C224.950424,633.343506 213.805573,627.295410 207.341751,616.001770 
	C201.373337,605.573730 198.628586,594.154297 201.018326,581.979614 
	C201.018326,581.979614 201.000198,581.998474 200.990814,582.007751 
z"/>
<path fill="#000000" opacity="1.000000" stroke="none" 
	d="
M198.021240,486.007019 
	C190.992096,473.528015 190.379227,460.799591 196.670547,447.871246 
	C199.070587,442.939301 203.220291,439.500641 207.555145,436.426483 
	C210.479874,434.352356 213.093872,434.620209 214.295792,438.789276 
	C215.299576,442.271149 216.693741,445.640503 217.971024,449.216461 
	C210.228821,454.092285 205.458710,460.165833 208.664688,469.621704 
	C211.005280,476.525146 216.069901,479.573364 225.153320,479.792053 
	C232.103058,479.959381 236.488235,477.077271 238.996094,470.345367 
	C239.018250,469.982056 238.998566,470.005737 238.991333,470.020325 
	C241.760468,464.823914 241.320190,459.531433 237.039047,454.949646 
	C234.660782,452.404297 234.733231,450.469971 236.866058,448.119110 
	C237.870865,447.011597 238.860672,445.882355 239.763397,444.691772 
	C244.248123,438.777222 246.144012,438.677795 250.362106,444.688599 
	C258.220154,455.886322 257.817352,467.982300 252.677643,479.835236 
	C247.476364,491.830109 237.628830,498.497437 224.552780,498.912201 
	C214.018814,499.246307 205.232208,494.613861 198.248047,486.177002 
	C197.991196,485.987610 198.021240,486.007019 198.021240,486.007019 
z"/>
<path fill="#000000" opacity="1.000000" stroke="none" 
	d="
M759.684937,599.832642 
	C763.366455,590.012268 763.297058,590.196594 772.909058,593.815063 
	C785.948486,598.723755 799.107178,603.315674 812.214783,608.043396 
	C812.997070,608.325500 813.794006,608.572510 814.560364,608.892639 
	C820.836914,611.514709 820.835205,611.518799 818.626038,617.990662 
	C815.035767,628.508667 815.045288,628.481995 804.690613,624.783936 
	C791.240051,619.980286 777.790710,615.171814 764.304932,610.468384 
	C756.915100,607.890991 756.769653,607.744873 759.684937,599.832642 
z"/>
<path fill="#000000" opacity="1.000000" stroke="none" 
	d="
M603.008667,761.792603 
	C602.686707,759.497314 603.623718,758.367920 605.187561,757.360596 
	C615.887756,750.468018 618.123474,751.042358 622.760742,762.568604 
	C626.486511,771.829285 629.956604,781.192810 633.547302,790.507935 
	C634.262268,792.362854 635.283875,794.214111 633.222168,796.177917 
	C628.146362,795.844177 625.627380,790.616699 620.598022,789.294556 
	C618.281006,796.406921 623.971375,802.620911 621.969177,809.866150 
	C615.675171,793.971375 609.381165,778.076538 603.008667,761.792603 
z"/>
<path fill="#000000" opacity="1.000000" stroke="none" 
	d="
M197.977615,485.975220 
	C197.835205,490.900177 199.859589,493.409332 204.902374,495.200775 
	C207.976318,496.292725 210.721725,499.154266 214.699265,499.627319 
	C203.238586,504.901489 192.168564,510.241547 188.152756,523.597778 
	C184.547134,519.481812 184.637787,518.802246 186.843079,514.710815 
	C189.414246,509.940674 193.463501,506.415558 196.786667,502.288788 
	C198.712723,499.896973 199.102188,497.683533 196.854660,495.730713 
	C192.773117,492.184448 193.918961,489.308105 197.760361,486.229675 
	C198.021240,486.007019 197.991196,485.987610 197.977615,485.975220 
z"/>
<path fill="#000000" opacity="1.000000" stroke="none" 
	d="
M252.715744,288.357147 
	C259.394348,287.374359 260.751404,283.129272 260.259613,277.343903 
	C260.037842,274.734711 262.244537,273.679077 264.341431,272.932861 
	C266.796692,272.059143 268.055298,273.836029 269.196960,275.476807 
	C272.436279,280.132233 271.237152,286.373077 266.462860,290.144562 
	C261.453674,294.101593 257.364380,293.662384 252.715744,288.357147 
z"/>
<path fill="#000000" opacity="1.000000" stroke="none" 
	d="
M832.090332,585.618896 
	C830.538330,580.735229 835.138428,577.930420 835.202759,573.688171 
	C837.351501,574.310059 839.749878,574.279053 840.275757,576.980591 
	C840.792786,579.636597 838.486511,579.658752 836.918823,580.380249 
	C835.333191,581.110046 835.356628,582.725281 834.892944,584.122131 
	C834.513306,585.265991 834.558472,587.577759 832.090332,585.618896 
z"/>
<path fill="#000000" opacity="1.000000" stroke="none" 
	d="
M248.676971,276.867065 
	C246.383728,279.716187 246.671875,283.027100 245.940857,285.962433 
	C244.242203,286.089020 243.134384,284.749451 243.378159,283.976959 
	C244.599792,280.105560 246.199127,276.353333 247.769165,272.291626 
	C250.134048,274.135193 248.905609,275.379181 248.676971,276.867065 
z"/>
<path fill="#000000" opacity="1.000000" stroke="none" 
	d="
M276.946442,399.334045 
	C276.753326,399.497253 276.552124,399.649719 275.890259,399.751953 
	C273.912872,399.293488 272.721710,397.860321 270.497681,398.203217 
	C272.035828,403.292480 272.060455,408.342041 271.204041,413.466522 
	C269.150452,425.754211 256.724792,435.937500 245.316315,434.133514 
	C230.863770,431.848175 218.215607,424.619415 205.048599,418.843231 
	C203.074448,417.977173 202.253738,416.622803 203.231339,414.474762 
	C205.142029,410.276520 206.535507,405.824005 209.446945,401.666443 
	C211.349838,402.340454 213.207855,402.951416 215.031235,403.652435 
	C223.853912,407.044373 232.626892,410.571198 241.504349,413.812256 
	C244.932755,415.063934 248.638260,416.003296 251.511307,412.367126 
	C251.511307,412.367126 251.895035,412.046783 252.392883,411.829468 
	C259.575012,405.266205 259.109802,396.839111 251.634232,391.805023 
	C248.199829,389.492279 244.492432,387.645477 240.567184,386.180145 
	C234.524826,383.924561 228.603363,381.345856 222.623962,378.920624 
	C219.617493,377.701202 218.528809,375.899200 220.211517,372.729431 
	C221.606445,370.101746 222.847183,367.347595 223.765289,364.522430 
	C224.949951,360.877075 227.048325,360.487183 230.266602,361.812042 
	C246.511398,368.499451 262.776642,375.137787 279.066986,381.713409 
	C281.879150,382.848541 282.320526,384.485199 281.309723,387.182983 
	C279.800598,391.210938 277.583221,394.993073 276.946442,399.334045 
z"/>
<path fill="#000000" opacity="1.000000" stroke="none" 
	d="
M457.909912,240.116898 
	C460.528625,245.098495 460.037384,246.200211 454.705139,247.527405 
	C450.961487,248.459198 446.328674,248.367020 448.525391,254.682053 
	C440.862152,252.376648 437.959259,246.422150 441.730103,242.126419 
	C443.864899,242.572357 442.243347,245.392426 445.011566,246.289444 
	C445.484222,241.416382 445.570892,235.767441 452.132050,235.321991 
	C454.995605,235.127579 456.199310,237.857727 457.909912,240.116898 
z"/>
<path fill="#000000" opacity="1.000000" stroke="none" 
	d="
M687.840454,612.761963 
	C686.810669,612.701172 686.121643,612.712708 685.510315,612.500610 
	C681.568176,611.132874 679.478577,608.478333 680.181458,604.185486 
	C680.700684,601.014893 682.777405,599.117920 685.915588,598.924255 
	C690.133911,598.664062 691.499512,601.918579 692.444031,605.161865 
	C693.549438,608.957703 692.186646,611.637756 687.840454,612.761963 
z"/>
<path fill="#000000" opacity="1.000000" stroke="none" 
	d="
M503.567108,169.904480 
	C507.133759,169.845337 510.294189,169.589279 513.397156,169.902298 
	C517.545959,170.320831 519.435364,174.681717 517.070801,177.971725 
	C515.853699,179.665237 514.169861,180.539261 512.531921,178.732086 
	C509.968414,175.903717 507.098328,174.607025 503.276520,175.569717 
	C501.875366,175.922699 500.531067,175.409058 500.218689,173.815689 
	C499.776672,171.560883 501.196106,170.517624 503.567108,169.904480 
z"/>
<path fill="#000000" opacity="1.000000" stroke="none" 
	d="
M479.326111,276.050507 
	C482.117493,275.905792 484.623810,275.920807 485.250580,278.886810 
	C485.668365,280.863983 484.446503,282.444366 482.727600,283.345947 
	C480.551025,284.487549 478.422333,283.973450 476.838715,282.219177 
	C473.991058,279.064636 475.535583,277.217377 479.326111,276.050507 
z"/>
<path fill="#000000" opacity="1.000000" stroke="none" 
	d="
M493.186584,834.061584 
	C496.065552,830.448364 496.041199,826.752380 495.098328,822.848938 
	C494.677094,821.105042 494.117645,819.620300 492.165375,819.262024 
	C488.355682,818.562744 487.743805,816.083557 487.853790,812.633301 
	C488.173218,802.610107 485.697968,793.583313 476.390686,788.204407 
	C467.418518,783.019287 458.010956,782.203735 449.025238,788.202332 
	C445.700134,790.422119 444.031067,789.864136 441.707947,786.905334 
	C433.946442,777.020203 434.124695,775.350769 446.356323,770.956177 
	C464.172424,764.554932 480.354034,767.820374 494.465424,780.578674 
	C511.014862,795.541199 511.153778,824.160828 494.664917,838.970337 
	C492.625946,840.801636 490.700653,843.444336 486.812836,842.924072 
	C488.017395,839.135803 491.542877,837.470459 493.186584,834.061584 
z"/>
<path fill="#000000" opacity="1.000000" stroke="none" 
	d="
M477.973816,832.008179 
	C477.396210,829.466064 479.507446,828.878235 480.727417,827.675659 
	C482.917175,825.516724 485.874115,824.002563 486.159119,819.368408 
	C488.033386,824.968872 483.724976,830.921814 477.973816,832.008179 
z"/>
<path fill="#000000" opacity="1.000000" stroke="none" 
	d="
M437.905243,828.677856 
	C436.180817,828.707153 435.240570,828.143433 435.647369,826.626892 
	C436.065704,825.067322 437.361389,824.175354 438.809448,823.745789 
	C440.984467,823.100586 442.168884,824.337036 442.904663,826.241150 
	C441.878326,828.174438 439.908234,828.110535 437.905243,828.677856 
z"/>
<path fill="#000000" opacity="1.000000" stroke="none" 
	d="
M744.987915,633.018188 
	C747.347168,632.486145 749.054993,630.784424 750.901245,629.415710 
	C767.052612,617.441589 790.653198,625.189697 797.332581,642.655884 
	C803.574768,658.978943 798.104797,676.264038 782.547668,686.271851 
	C768.637085,695.220581 751.375427,691.681763 740.490051,678.398865 
	C732.931702,669.175598 732.764526,652.827332 740.158020,640.688110 
	C741.623657,638.281799 743.275696,635.989075 744.938354,633.308472 
	C745.035034,632.972961 745.002686,633.002197 744.987915,633.018188 
M763.278015,641.691589 
	C755.627075,643.910156 750.299744,650.237549 750.506836,656.860413 
	C750.717896,663.611877 757.253845,670.886230 764.572998,672.515442 
	C776.166321,675.096191 786.337219,665.167908 783.569397,653.972290 
	C781.876465,647.124634 772.700317,641.249817 763.278015,641.691589 
z"/>
<path fill="#000000" opacity="1.000000" stroke="none" 
	d="
M681.594116,767.635498 
	C676.575500,772.801575 674.092102,773.729675 667.535889,772.513855 
	C672.558350,765.922546 680.971069,764.348083 685.391968,757.657776 
	C688.166809,762.555542 688.166809,762.555542 681.594116,767.635498 
z"/>
<path fill="#000000" opacity="1.000000" stroke="none" 
	d="
M438.635925,758.062927 
	C432.899231,752.270630 428.963898,751.030212 424.432098,753.408508 
	C421.968109,754.701660 420.430450,756.411438 419.801117,759.416260 
	C419.120056,762.667664 418.639008,767.511230 412.899139,763.841736 
	C411.202515,762.757080 409.781372,764.543030 408.761108,765.814148 
	C400.118835,776.580994 389.706146,785.630188 380.036072,795.392761 
	C371.779419,803.728455 371.638580,803.524109 360.727875,798.844055 
	C357.245453,797.350342 356.892090,795.503723 359.528381,792.907227 
	C366.398987,786.140320 373.249512,779.352844 380.140625,772.606873 
	C387.985413,764.927307 395.896240,757.315063 403.718262,749.612488 
	C408.126404,745.271667 412.941559,741.581238 418.372772,738.537354 
	C427.351929,733.505127 443.417175,739.503784 449.545441,748.017944 
	C450.014984,748.670288 450.471680,749.487488 450.524902,750.256409 
	C450.739838,753.362549 442.148651,759.241028 438.635925,758.062927 
z"/>
<path fill="#000000" opacity="1.000000" stroke="none" 
	d="
M248.212555,329.095337 
	C249.120087,329.985718 249.766556,331.061096 251.569122,330.557068 
	C251.481964,324.850769 252.030701,319.185822 255.255096,314.039246 
	C256.862427,311.473694 258.334991,310.802155 260.802917,312.626038 
	C261.735718,313.315430 262.862823,313.758453 263.739197,314.504303 
	C265.877747,316.324249 269.214630,316.988037 270.266144,319.696564 
	C271.350250,322.489075 268.315277,324.338654 267.372375,326.733154 
	C264.460999,334.126465 266.387787,340.619293 273.332581,345.388245 
	C280.174561,350.086578 287.037018,354.759735 293.999481,359.275909 
	C297.053253,361.256775 297.908234,362.952637 295.588776,366.390442 
	C287.703796,378.077271 287.867950,378.123230 276.135071,370.132965 
	C265.428345,362.841553 254.657806,355.643524 243.893646,348.436859 
	C236.758728,343.660004 236.610046,343.384308 241.266251,335.989624 
	C242.890518,333.410065 243.660828,330.002502 247.502213,328.899994 
	C247.845566,328.848175 248.086670,329.018372 248.212555,329.095337 
z"/>
<path fill="#000000" opacity="1.000000" stroke="none" 
	d="
M260.824799,641.786560 
	C266.124329,638.918152 271.144684,636.308411 276.083160,633.551941 
	C278.945007,631.954590 281.112701,632.200195 282.606689,635.321533 
	C289.089691,648.866516 291.322540,646.740417 277.914581,653.634705 
	C264.893219,660.330078 251.958740,667.199341 239.091339,674.185974 
	C235.579285,676.092957 233.254807,675.867004 231.604874,672.066650 
	C230.876923,670.390076 230.124649,668.708496 229.203339,667.134583 
	C227.106003,663.551697 225.372955,660.106506 231.631149,657.867188 
	C225.598740,655.325623 221.283951,652.049377 218.214508,647.300049 
	C217.766983,646.607605 217.209320,645.811707 217.184570,645.048096 
	C216.982285,638.806030 223.287933,639.764160 226.315430,637.067566 
	C227.684464,635.848206 229.701019,634.197937 231.766052,637.067627 
	C240.303085,648.931152 244.955750,649.994934 257.876099,643.410034 
	C258.765717,642.956604 259.633362,642.460022 260.824799,641.786560 
z"/>
<path fill="#000000" opacity="1.000000" stroke="none" 
	d="
M296.434021,695.718262 
	C292.682373,689.544678 285.898895,686.152161 283.032959,678.910645 
	C295.097321,682.023254 302.920898,692.884338 298.693268,699.807617 
	C296.182861,699.606628 296.919189,697.518005 296.434021,695.718262 
z"/>
<path fill="#000000" opacity="1.000000" stroke="none" 
	d="
M738.856201,336.384399 
	C741.769287,331.409851 746.548523,329.180115 750.891113,326.602478 
	C754.422119,324.506531 756.466675,329.014893 759.618835,329.735596 
	C762.921265,330.490631 765.082214,333.275604 764.300964,337.270599 
	C763.556641,341.077362 765.846802,345.169861 761.774780,348.734192 
	C757.482910,352.491028 749.728638,355.733093 745.909241,353.851227 
	C739.889648,350.885254 737.270081,345.063354 738.665588,337.765656 
	C738.727844,337.439941 738.737122,337.104034 738.856201,336.384399 
z"/>
<path fill="#000000" opacity="1.000000" stroke="none" 
	d="
M659.000244,249.008331 
	C660.834717,245.807053 656.620789,246.162582 656.025024,243.321838 
	C658.643799,238.790344 661.589844,233.572830 664.658630,228.428513 
	C666.446960,225.430878 668.816833,226.580414 670.937744,227.968414 
	C673.584717,229.700668 675.876892,231.857346 678.819214,233.282242 
	C686.090698,236.803665 685.923035,246.949631 681.375671,250.795837 
	C680.418091,251.605804 679.612061,252.270233 678.449036,252.239105 
	C673.404541,252.104095 667.993835,254.381012 663.592651,249.749619 
	C662.872437,248.991745 661.063049,249.268845 659.360229,249.015411 
	C658.963318,248.963196 658.989197,248.992523 659.000244,249.008331 
z"/>
<path fill="#000000" opacity="1.000000" stroke="none" 
	d="
M346.944977,752.828369 
	C342.633270,759.757080 333.944733,760.841187 328.385498,755.249207 
	C326.034760,752.884644 322.363495,751.205322 322.761932,747.019165 
	C323.433472,739.963562 328.124176,735.767212 333.825714,732.643982 
	C338.068420,730.319946 343.134491,731.839050 347.197174,736.032776 
	C352.357422,741.359558 352.533813,743.237183 348.601929,749.382141 
	C347.988800,750.340332 347.650177,751.474182 346.944977,752.828369 
z"/>
<path fill="#000000" opacity="1.000000" stroke="none" 
	d="
M568.586426,777.754028 
	C569.819275,782.717590 568.565674,786.429382 564.417969,788.815796 
	C559.472656,791.661133 553.372986,791.435059 549.574829,788.049194 
	C545.898682,784.772156 545.795837,780.199585 547.028809,775.988220 
	C548.465271,771.082092 552.951660,769.391907 557.544495,768.853027 
	C562.173706,768.309998 566.511108,771.973694 568.586426,777.754028 
z"/>
<path fill="#000000" opacity="1.000000" stroke="none" 
	d="
M281.009552,700.014893 
	C278.843262,702.431091 280.952209,704.179138 282.347900,705.355225 
	C283.836243,706.609375 284.536896,707.677795 284.109894,709.491577 
	C277.299744,711.345947 270.769501,703.491089 272.317963,695.336426 
	C275.671356,695.598328 276.841003,699.736145 280.620300,699.898193 
	C280.969055,699.964111 280.996460,699.997620 281.009552,700.014893 
z"/>
<path fill="#000000" opacity="1.000000" stroke="none" 
	d="
M812.950439,442.223022 
	C812.698242,445.185486 812.323425,447.746918 811.917786,450.518646 
	C807.771484,449.772949 806.429626,446.706909 806.121338,443.815826 
	C805.926208,441.986206 805.865906,439.997467 805.770386,438.074219 
	C805.684326,436.340332 805.382202,433.977417 808.080078,434.080109 
	C809.987488,434.152710 812.033875,434.813324 812.241699,437.432953 
	C812.358276,438.902222 812.627319,440.359406 812.950439,442.223022 
z"/>
<path fill="#000000" opacity="1.000000" stroke="none" 
	d="
M668.321533,748.967468 
	C666.609924,753.942566 661.526550,754.107422 658.461243,756.897705 
	C657.340698,757.917664 656.070374,756.684021 655.832336,755.080322 
	C655.341919,751.776917 656.072510,749.270447 658.978638,746.975952 
	C661.781067,744.763367 664.575806,744.255981 667.696899,744.942017 
	C670.052063,745.459656 668.564636,747.273926 668.321533,748.967468 
z"/>
<path fill="#000000" opacity="1.000000" stroke="none" 
	d="
M213.919174,544.638306 
	C209.249725,544.641479 207.726318,541.584045 206.961487,537.657715 
	C206.094666,533.207825 207.466125,530.052002 213.230011,524.777222 
	C215.090500,531.544983 214.313766,537.988464 213.919174,544.638306 
z"/>
<path fill="#000000" opacity="1.000000" stroke="none" 
	d="
M779.803223,651.508057 
	C782.537659,659.951416 778.321533,665.522217 772.939270,670.539429 
	C771.372070,672.000366 769.067017,671.462952 767.162537,671.155762 
	C757.207031,669.549988 751.755737,660.521423 754.783386,650.784729 
	C755.532104,648.377258 757.829590,647.215515 759.774719,646.376160 
	C761.789124,645.506958 763.474976,644.308960 765.436462,642.842834 
	C769.574036,646.721741 776.374451,645.804260 779.803223,651.508057 
z"/>
</svg>